<svg xmlns="http://www.w3.org/2000/svg" id="Layer_1" viewBox="0 0 32 32" width="32" height="32"><defs><style>.cls-1{fill:#231f20}</style></defs><path d="M16.09 31.55s4.64-8.07 0-15.48c0 0-5 6.61 0 15.48z" class="cls-1"/><path d="M29.36 23.57s-4.2-7.75-13.27-7.5c0 0 4.4 8.05 13.27 7.5zm0-15.33s-8-.67-13.27 7.83c0 0 9.97-.39 13.27-7.83zM16.09.45s4.86 7.72 0 15.62a14.6 14.6 0 0 1 0-15.62zM2.64 8.11a15.77 15.77 0 0 1 13.45 8 15.25 15.25 0 0 1-13.45-8z" class="cls-1"/><path d="M2.64 23.6s4.49-7.6 13.45-7.53c0 0-4.51 7.56-13.45 7.53z" class="cls-1"/></svg>