<svg xmlns="http://www.w3.org/2000/svg" id="Layer_1" viewBox="0 0 2060 775.21" width="2060" height="775.21"><defs><style>.cls-1,.cls-4{opacity:.05}.cls-2{fill:none;stroke:#231f20;stroke-miterlimit:10;stroke-width:3.11px}.cls-3{fill:#231f20}.cls-4{font-size:32.12px;font-family:OxtailOT-Medium,Oxtail OT;font-weight:500}.cls-5{letter-spacing:-.01em}</style></defs><g class="cls-1"><path d="M534.66 249.08s16.54-28.79 0-55.26c0 0-17.85 23.6 0 55.26z" class="cls-2"/><path d="M582 220.58s-15-27.66-47.35-26.76c.01 0 15.7 28.75 47.35 26.76z" class="cls-2"/><path d="M582 165.89s-28.65-2.41-47.35 27.93c.01 0 35.57-1.41 47.35-27.93z" class="cls-2"/><path d="M534.66 138.07s17.35 27.54 0 55.75c0 0-18.09-24.97 0-55.75z" class="cls-2"/><path d="M486.64 165.42s29.93-1.5 48 28.4a54.47 54.47 0 0 1-48-28.4z" class="cls-2"/><path d="M486.64 220.68s16-27.25 48-26.86c.02 0-16.08 26.98-48 26.86z" class="cls-2"/></g><g class="cls-1"><path d="M654 540.84s16.54-28.79 0-55.26c0 0-17.86 23.6 0 55.26z" class="cls-3"/><path d="M701.34 512.35s-15-27.66-47.35-26.77c.01 0 15.69 28.75 47.35 26.77z" class="cls-3"/><path d="M701.34 457.65s-28.65-2.41-47.35 27.93c.01 0 35.56-1.4 47.35-27.93z" class="cls-3"/><path d="M654 429.83s17.35 27.54 0 55.75c0 0-18.1-24.96 0-55.75z" class="cls-3"/><path d="M606 457.19s29.93-1.5 48 28.39a54.47 54.47 0 0 1-48-28.39z" class="cls-3"/><path d="M606 512.45s16-27.26 48-26.87c0 0-16.11 26.98-48 26.87z" class="cls-3"/></g><g class="cls-1"><path d="M653.32 152.18s16.54-28.79 0-55.26c0 0-17.85 23.6 0 55.26z" class="cls-3"/><path d="M700.68 123.68S685.7 96 653.32 96.92c0 0 15.68 28.75 47.36 26.76zm0-54.68S672 66.58 653.32 96.92c0 0 35.56-1.4 47.36-27.92zm-47.36-27.83s17.36 27.54 0 55.75c0 0-18.09-24.92 0-55.75z" class="cls-3"/><path d="M605.3 68.53s29.93-1.5 48 28.39a54.48 54.48 0 0 1-48-28.39z" class="cls-3"/><path d="M605.3 123.79s16-27.26 48-26.87c.02 0-16.07 26.98-48 26.87z" class="cls-3"/></g><g class="cls-1"><path d="M653.66 346.51s16.54-28.79 0-55.26c0 0-17.85 23.6 0 55.26z" class="cls-3"/><path d="M701 318s-15-27.65-47.35-26.76c.01.01 15.7 28.76 47.35 26.76z" class="cls-3"/><path d="M701 263.32s-28.65-2.41-47.35 27.93c.01 0 35.57-1.4 47.35-27.93z" class="cls-3"/><path d="M653.66 235.5s17.35 27.54 0 55.75c0 0-18.1-24.96 0-55.75z" class="cls-3"/><path d="M605.63 262.86s29.93-1.5 48 28.39a54.49 54.49 0 0 1-48-28.39z" class="cls-3"/><path d="M605.63 318.12s16-27.26 48-26.87c.03 0-16.07 26.98-48 26.87z" class="cls-3"/></g><g class="cls-1"><path d="M534.33 442.88s16.54-28.79 0-55.26c0 0-17.85 23.59 0 55.26z" class="cls-2"/><path d="M581.68 414.38s-15-27.66-47.35-26.76c0 0 15.67 28.74 47.35 26.76zm0-54.7s-28.65-2.41-47.35 27.94c0 0 35.56-1.41 47.35-27.94z" class="cls-2"/><path d="M534.33 331.86s17.35 27.54 0 55.76c0 0-18.1-24.97 0-55.76z" class="cls-2"/><path d="M486.3 359.22s29.93-1.5 48 28.4a54.49 54.49 0 0 1-48-28.4z" class="cls-2"/><path d="M486.3 414.48s16-27.26 48-26.86c.03 0-16.07 26.97-48 26.86z" class="cls-2"/></g><text class="cls-4" transform="translate(512.06 106.32)"><tspan class="cls-5">D</tspan><tspan x="23.45" y="0">C</tspan></text><text class="cls-4" transform="translate(630.72 203.49)"><tspan class="cls-5">D</tspan><tspan x="23.45" y="0">C</tspan></text><text class="cls-4" transform="translate(512.06 300.12)"><tspan class="cls-5">D</tspan><tspan x="23.45" y="0">C</tspan></text><text class="cls-4" transform="translate(512.06 493.92)"><tspan class="cls-5">D</tspan><tspan x="23.45" y="0">C</tspan></text><text class="cls-4" transform="translate(630.56 397.82)"><tspan class="cls-5">D</tspan><tspan x="23.45" y="0">C</tspan></text><g class="cls-1"><path d="M534.66 830.47s16.54-28.79 0-55.26c0 0-17.85 23.6 0 55.26z" class="cls-2"/><path d="M582 802s-15-27.65-47.35-26.76c.01-.03 15.7 28.76 47.35 26.76zm0-54.72s-28.65-2.41-47.35 27.93c.01 0 35.57-1.4 47.35-27.93z" class="cls-2"/><path d="M534.66 719.46s17.35 27.54 0 55.75c0 0-18.09-24.96 0-55.75z" class="cls-2"/><path d="M486.64 746.82s29.93-1.5 48 28.39a54.47 54.47 0 0 1-48-28.39z" class="cls-2"/><path d="M486.64 802.08s16-27.26 48-26.87c.02 0-16.08 26.98-48 26.87z" class="cls-2"/></g><g class="cls-1"><path d="M653.32 733.57s16.54-28.79 0-55.26c0 0-17.85 23.6 0 55.26z" class="cls-3"/><path d="M700.68 705.08s-15-27.66-47.36-26.77c0 0 15.68 28.75 47.36 26.77zm0-54.7S672 648 653.32 678.31c0 0 35.56-1.4 47.36-27.93zm-47.36-27.82s17.36 27.54 0 55.75c0 0-18.09-24.96 0-55.75z" class="cls-3"/><path d="M605.3 649.92s29.93-1.5 48 28.39a54.48 54.48 0 0 1-48-28.39z" class="cls-3"/><path d="M605.3 705.18s16-27.26 48-26.87c.02 0-16.07 26.98-48 26.87z" class="cls-3"/></g><g class="cls-1"><path d="M534.33 636.67s16.54-28.79 0-55.26c0 0-17.85 23.59 0 55.26z" class="cls-2"/><path d="M581.68 608.18s-15-27.66-47.35-26.77c0 0 15.67 28.75 47.35 26.77zm0-54.7s-28.65-2.41-47.35 27.93c0 0 35.56-1.41 47.35-27.93z" class="cls-2"/><path d="M534.33 525.66s17.35 27.54 0 55.75c0 0-18.1-24.96 0-55.75z" class="cls-2"/><path d="M486.3 553s29.93-1.5 48 28.39a54.49 54.49 0 0 1-48-28.39z" class="cls-2"/><path d="M486.3 608.28s16-27.26 48-26.87c.03 0-16.07 26.98-48 26.87z" class="cls-2"/></g><text class="cls-4" transform="translate(512.06 687.71)"><tspan class="cls-5">D</tspan><tspan x="23.45" y="0">C</tspan></text><text class="cls-4" transform="translate(630.72 784.88)"><tspan class="cls-5">D</tspan><tspan x="23.45" y="0">C</tspan></text><g class="cls-1"><path d="M293.66 249.08s16.54-28.79 0-55.26c0 0-17.85 23.6 0 55.26z" class="cls-2"/><path d="M341 220.58s-15-27.66-47.36-26.76c.02 0 15.72 28.75 47.36 26.76z" class="cls-2"/><path d="M341 165.89s-28.66-2.41-47.36 27.93c.02 0 35.58-1.41 47.36-27.93z" class="cls-2"/><path d="M293.66 138.07s17.36 27.54 0 55.75c0 0-18.09-24.97 0-55.75z" class="cls-2"/><path d="M245.64 165.42s29.93-1.5 48 28.4a54.48 54.48 0 0 1-48-28.4z" class="cls-2"/><path d="M245.64 220.68s16-27.25 48-26.86c.02 0-16.08 26.98-48 26.86z" class="cls-2"/></g><g class="cls-1"><path d="M293.33 442.88s16.54-28.79 0-55.26c0 0-17.85 23.59 0 55.26z" class="cls-2"/><path d="M340.68 414.38s-15-27.66-47.35-26.76c0 0 15.67 28.74 47.35 26.76zm0-54.7s-28.65-2.41-47.35 27.94c0 0 35.56-1.41 47.35-27.94zm-47.35-27.82s17.35 27.54 0 55.76c0 0-18.09-24.97 0-55.76z" class="cls-2"/><path d="M245.31 359.22s29.93-1.5 48 28.4a54.47 54.47 0 0 1-48-28.4z" class="cls-2"/><path d="M245.31 414.48s16-27.26 48-26.86c.02 0-16.08 26.97-48 26.86z" class="cls-2"/></g><text class="cls-4" transform="translate(271.06 106.32)"><tspan class="cls-5">D</tspan><tspan x="23.45" y="0">C</tspan></text><text class="cls-4" transform="translate(271.06 300.12)"><tspan class="cls-5">D</tspan><tspan x="23.45" y="0">C</tspan></text><text class="cls-4" transform="translate(271.06 493.92)"><tspan class="cls-5">D</tspan><tspan x="23.45" y="0">C</tspan></text><g class="cls-1"><path d="M293.66 830.47s16.54-28.79 0-55.26c0 0-17.85 23.6 0 55.26z" class="cls-2"/><path d="M341 802s-15-27.65-47.36-26.76c.02-.03 15.72 28.76 47.36 26.76zm0-54.72s-28.66-2.41-47.36 27.93c.02 0 35.58-1.4 47.36-27.93z" class="cls-2"/><path d="M293.66 719.46s17.36 27.54 0 55.75c0 0-18.09-24.96 0-55.75z" class="cls-2"/><path d="M245.64 746.82s29.93-1.5 48 28.39a54.48 54.48 0 0 1-48-28.39z" class="cls-2"/><path d="M245.64 802.08s16-27.26 48-26.87c.02 0-16.08 26.98-48 26.87z" class="cls-2"/></g><g class="cls-1"><path d="M293.33 636.67s16.54-28.79 0-55.26c0 0-17.85 23.59 0 55.26z" class="cls-2"/><path d="M340.68 608.18s-15-27.66-47.35-26.77c0 0 15.67 28.75 47.35 26.77zm0-54.7s-28.65-2.41-47.35 27.93c0 0 35.56-1.41 47.35-27.93zm-47.35-27.82s17.35 27.54 0 55.75c0 0-18.09-24.96 0-55.75z" class="cls-2"/><path d="M245.31 553s29.93-1.5 48 28.39a54.47 54.47 0 0 1-48-28.39z" class="cls-2"/><path d="M245.31 608.28s16-27.26 48-26.87c.02 0-16.08 26.98-48 26.87z" class="cls-2"/></g><text class="cls-4" transform="translate(271.06 687.71)"><tspan class="cls-5">D</tspan><tspan x="23.45" y="0">C</tspan></text><g class="cls-1"><path d="M49.66 249.08s16.54-28.79 0-55.26c0 0-17.85 23.6 0 55.26z" class="cls-2"/><path d="M97 220.58s-15-27.66-47.36-26.76c.02 0 15.72 28.75 47.36 26.76z" class="cls-2"/><path d="M97 165.89s-28.66-2.41-47.36 27.93c.02 0 35.58-1.41 47.36-27.93z" class="cls-2"/><path d="M49.66 138.07s17.36 27.54 0 55.75c0 0-18.09-24.97 0-55.75z" class="cls-2"/><path d="M1.64 165.42s29.93-1.5 48 28.4a54.48 54.48 0 0 1-48-28.4z" class="cls-2"/><path d="M1.64 220.68s16-27.25 48-26.86c.02 0-16.07 26.98-48 26.86z" class="cls-2"/></g><g class="cls-1"><path d="M49.33 442.88s16.54-28.79 0-55.26c0 0-17.85 23.59 0 55.26z" class="cls-2"/><path d="M96.68 414.38s-15-27.66-47.35-26.76c0 0 15.67 28.74 47.35 26.76zm0-54.7S68 357.27 49.33 387.62c0 0 35.56-1.41 47.35-27.94zm-47.35-27.82s17.35 27.54 0 55.76c0 0-18.09-24.97 0-55.76z" class="cls-2"/><path d="M1.31 359.22s29.93-1.5 48 28.4a54.47 54.47 0 0 1-48-28.4z" class="cls-2"/><path d="M1.31 414.48s16-27.26 48-26.86c.02 0-16.08 26.97-48 26.86z" class="cls-2"/></g><text class="cls-4" transform="translate(27.06 106.32)"><tspan class="cls-5">D</tspan><tspan x="23.45" y="0">C</tspan></text><text class="cls-4" transform="translate(27.06 300.12)"><tspan class="cls-5">D</tspan><tspan x="23.45" y="0">C</tspan></text><text class="cls-4" transform="translate(27.06 493.92)"><tspan class="cls-5">D</tspan><tspan x="23.45" y="0">C</tspan></text><g class="cls-1"><path d="M49.66 830.47s16.54-28.79 0-55.26c0 0-17.85 23.6 0 55.26z" class="cls-2"/><path d="M97 802s-15-27.65-47.36-26.76C49.66 775.21 65.36 804 97 802zm0-54.72s-28.66-2.41-47.36 27.93c.02 0 35.58-1.4 47.36-27.93z" class="cls-2"/><path d="M49.66 719.46s17.34 27.54 0 55.75c0 0-18.09-24.96 0-55.75z" class="cls-2"/><path d="M1.64 746.82s29.93-1.5 48 28.39a54.48 54.48 0 0 1-48-28.39z" class="cls-2"/><path d="M1.64 802.08s16-27.26 48-26.87c.02 0-16.07 26.98-48 26.87z" class="cls-2"/></g><g class="cls-1"><path d="M49.33 636.67s16.54-28.79 0-55.26c0 0-17.85 23.59 0 55.26z" class="cls-2"/><path d="M96.68 608.18s-15-27.66-47.35-26.77c0 0 15.67 28.75 47.35 26.77zm0-54.7S68 551.07 49.33 581.41c0 0 35.56-1.41 47.35-27.93zm-47.35-27.82s17.35 27.54 0 55.75c0 0-18.09-24.96 0-55.75z" class="cls-2"/><path d="M1.31 553s29.93-1.5 48 28.39a54.47 54.47 0 0 1-48-28.39z" class="cls-2"/><path d="M1.31 608.28s16-27.26 48-26.87c.02 0-16.08 26.98-48 26.87z" class="cls-2"/></g><text class="cls-4" transform="translate(27.06 687.71)"><tspan class="cls-5">D</tspan><tspan x="23.45" y="0">C</tspan></text><g class="cls-1"><path d="M774 249.08s16.54-28.79 0-55.26c0 0-17.86 23.6 0 55.26z" class="cls-2"/><path d="M821.34 220.58s-15-27.66-47.35-26.76c.01 0 15.69 28.75 47.35 26.76z" class="cls-2"/><path d="M821.34 165.89s-28.65-2.41-47.35 27.93c.01 0 35.56-1.41 47.35-27.93z" class="cls-2"/><path d="M774 138.07s17.35 27.54 0 55.75c0 0-18.11-24.97 0-55.75z" class="cls-2"/><path d="M726 165.42s29.92-1.5 48 28.4a54.47 54.47 0 0 1-48-28.4z" class="cls-2"/><path d="M726 220.68s16-27.25 48-26.86c0 0-16.11 26.98-48 26.86z" class="cls-2"/></g><g class="cls-1"><path d="M773.65 442.88s16.55-28.79 0-55.26c0 0-17.84 23.59 0 55.26z" class="cls-2"/><path d="M821 414.38s-15-27.66-47.36-26.76c.01 0 15.71 28.74 47.36 26.76z" class="cls-2"/><path d="M821 359.68s-28.66-2.41-47.36 27.94c.01 0 35.58-1.41 47.36-27.94z" class="cls-2"/><path d="M773.65 331.86s17.36 27.54 0 55.76c0 0-18.09-24.97 0-55.76z" class="cls-2"/><path d="M725.63 359.22s29.93-1.5 48 28.4a54.48 54.48 0 0 1-48-28.4z" class="cls-2"/><path d="M725.63 414.48s16-27.26 48-26.86c.02 0-16.07 26.97-48 26.86z" class="cls-2"/></g><text class="cls-4" transform="translate(751.39 106.32)"><tspan class="cls-5">D</tspan><tspan x="23.45" y="0">C</tspan></text><text class="cls-4" transform="translate(751.39 300.12)"><tspan class="cls-5">D</tspan><tspan x="23.45" y="0">C</tspan></text><text class="cls-4" transform="translate(751.39 493.92)"><tspan class="cls-5">D</tspan><tspan x="23.45" y="0">C</tspan></text><g class="cls-1"><path d="M774 830.47s16.54-28.79 0-55.26c0 0-17.86 23.6 0 55.26z" class="cls-2"/><path d="M821.34 802s-15-27.65-47.35-26.76c.01-.03 15.69 28.76 47.35 26.76zm0-54.72s-28.65-2.41-47.35 27.93c.01 0 35.56-1.4 47.35-27.93z" class="cls-2"/><path d="M774 719.46s17.35 27.54 0 55.75c0 0-18.11-24.96 0-55.75z" class="cls-2"/><path d="M726 746.82s29.92-1.5 48 28.39a54.47 54.47 0 0 1-48-28.39z" class="cls-2"/><path d="M726 802.08s16-27.26 48-26.87c0 0-16.11 26.98-48 26.87z" class="cls-2"/></g><g class="cls-1"><path d="M773.65 636.67s16.55-28.79 0-55.26c0 0-17.84 23.59 0 55.26z" class="cls-2"/><path d="M821 608.18s-15-27.66-47.36-26.77c.01 0 15.71 28.75 47.36 26.77z" class="cls-2"/><path d="M821 553.48s-28.66-2.41-47.36 27.93c.01 0 35.58-1.41 47.36-27.93z" class="cls-2"/><path d="M773.65 525.66s17.36 27.54 0 55.75c0 0-18.09-24.96 0-55.75z" class="cls-2"/><path d="M725.63 553s29.93-1.5 48 28.39a54.48 54.48 0 0 1-48-28.39z" class="cls-2"/><path d="M725.63 608.28s16-27.26 48-26.87c.02 0-16.07 26.98-48 26.87z" class="cls-2"/></g><text class="cls-4" transform="translate(751.39 687.71)"><tspan class="cls-5">D</tspan><tspan x="23.45" y="0">C</tspan></text><g class="cls-1"><path d="M1016.65 249.08s16.54-28.79 0-55.26c0 0-17.85 23.6 0 55.26z" class="cls-2"/><path d="M1064 220.58s-15-27.66-47.36-26.76c.01 0 15.71 28.75 47.36 26.76z" class="cls-2"/><path d="M1064 165.89s-28.66-2.41-47.36 27.93c.01 0 35.57-1.41 47.36-27.93z" class="cls-2"/><path d="M1016.65 138.07s17.36 27.54 0 55.75c0 0-18.09-24.97 0-55.75z" class="cls-2"/><path d="M968.63 165.42s29.93-1.5 48 28.4a54.48 54.48 0 0 1-48-28.4z" class="cls-2"/><path d="M968.63 220.68s16-27.25 48-26.86c.02 0-16.07 26.98-48 26.86z" class="cls-2"/></g><g class="cls-1"><path d="M1016.32 442.88s16.54-28.79 0-55.26c0 0-17.85 23.59 0 55.26z" class="cls-2"/><path d="M1063.67 414.38s-15-27.66-47.35-26.76c0 0 15.68 28.74 47.35 26.76zm0-54.7s-28.65-2.41-47.35 27.94c0 0 35.56-1.41 47.35-27.94zm-47.35-27.82s17.35 27.54 0 55.76c0 0-18.09-24.97 0-55.76z" class="cls-2"/><path d="M968.3 359.22s29.93-1.5 48 28.4a54.47 54.47 0 0 1-48-28.4z" class="cls-2"/><path d="M968.3 414.48s16-27.26 48-26.86c.02 0-16.08 26.97-48 26.86z" class="cls-2"/></g><text class="cls-4" transform="translate(994.06 106.32)"><tspan class="cls-5">D</tspan><tspan x="23.45" y="0">C</tspan></text><text class="cls-4" transform="translate(994.06 300.12)"><tspan class="cls-5">D</tspan><tspan x="23.45" y="0">C</tspan></text><text class="cls-4" transform="translate(994.06 493.92)"><tspan class="cls-5">D</tspan><tspan x="23.45" y="0">C</tspan></text><g class="cls-1"><path d="M1016.65 830.47s16.54-28.79 0-55.26c0 0-17.85 23.6 0 55.26z" class="cls-2"/><path d="M1064 802s-15-27.65-47.36-26.76c.01-.03 15.71 28.76 47.36 26.76zm0-54.72s-28.66-2.41-47.36 27.93c.01 0 35.57-1.4 47.36-27.93z" class="cls-2"/><path d="M1016.65 719.46s17.36 27.54 0 55.75c0 0-18.09-24.96 0-55.75z" class="cls-2"/><path d="M968.63 746.82s29.93-1.5 48 28.39a54.48 54.48 0 0 1-48-28.39z" class="cls-2"/><path d="M968.63 802.08s16-27.26 48-26.87c.02 0-16.07 26.98-48 26.87z" class="cls-2"/></g><g class="cls-1"><path d="M1016.32 636.67s16.54-28.79 0-55.26c0 0-17.85 23.59 0 55.26z" class="cls-2"/><path d="M1063.67 608.18s-15-27.66-47.35-26.77c0 0 15.68 28.75 47.35 26.77zm0-54.7s-28.65-2.41-47.35 27.93c0 0 35.56-1.41 47.35-27.93zm-47.35-27.82s17.35 27.54 0 55.75c0 0-18.09-24.96 0-55.75z" class="cls-2"/><path d="M968.3 553s29.93-1.5 48 28.39a54.47 54.47 0 0 1-48-28.39z" class="cls-2"/><path d="M968.3 608.28s16-27.26 48-26.87c.02 0-16.08 26.98-48 26.87z" class="cls-2"/></g><text class="cls-4" transform="translate(994.06 687.71)"><tspan class="cls-5">D</tspan><tspan x="23.45" y="0">C</tspan></text><g class="cls-1"><path d="M1263.32 249.08s16.54-28.79 0-55.26c0 0-17.85 23.6 0 55.26z" class="cls-2"/><path d="M1310.68 220.58s-15-27.66-47.36-26.76c0 0 15.68 28.75 47.36 26.76zm0-54.69s-28.66-2.41-47.36 27.93c0 0 35.56-1.41 47.36-27.93zm-47.36-27.82s17.35 27.54 0 55.75c0 0-18.09-24.97 0-55.75z" class="cls-2"/><path d="M1215.3 165.42s29.93-1.5 48 28.4a54.47 54.47 0 0 1-48-28.4z" class="cls-2"/><path d="M1215.3 220.68s16-27.25 48-26.86c.02 0-16.08 26.98-48 26.86z" class="cls-2"/></g><g class="cls-1"><path d="M1263 442.88s16.54-28.79 0-55.26c0 0-17.86 23.59 0 55.26z" class="cls-2"/><path d="M1310.34 414.38s-15-27.66-47.35-26.76c.01 0 15.69 28.74 47.35 26.76z" class="cls-2"/><path d="M1310.34 359.68s-28.65-2.41-47.35 27.94c.01 0 35.56-1.41 47.35-27.94z" class="cls-2"/><path d="M1263 331.86s17.35 27.54 0 55.76c0 0-18.11-24.97 0-55.76z" class="cls-2"/><path d="M1215 359.22s29.92-1.5 48 28.4a54.47 54.47 0 0 1-48-28.4z" class="cls-2"/><path d="M1215 414.48s16-27.26 48-26.86c0 0-16.11 26.97-48 26.86z" class="cls-2"/></g><text class="cls-4" transform="translate(1240.72 106.32)"><tspan class="cls-5">D</tspan><tspan x="23.45" y="0">C</tspan></text><text class="cls-4" transform="translate(1240.72 300.12)"><tspan class="cls-5">D</tspan><tspan x="23.45" y="0">C</tspan></text><text class="cls-4" transform="translate(1240.72 493.92)"><tspan class="cls-5">D</tspan><tspan x="23.45" y="0">C</tspan></text><g class="cls-1"><path d="M1263.32 830.47s16.54-28.79 0-55.26c0 0-17.85 23.6 0 55.26z" class="cls-2"/><path d="M1310.68 802s-15-27.65-47.36-26.76c0-.03 15.68 28.76 47.36 26.76zm0-54.72s-28.66-2.41-47.36 27.93c0 0 35.56-1.4 47.36-27.93zm-47.36-27.82s17.35 27.54 0 55.75c0 0-18.09-24.96 0-55.75z" class="cls-2"/><path d="M1215.3 746.82s29.93-1.5 48 28.39a54.47 54.47 0 0 1-48-28.39z" class="cls-2"/><path d="M1215.3 802.08s16-27.26 48-26.87c.02 0-16.08 26.98-48 26.87z" class="cls-2"/></g><g class="cls-1"><path d="M1263 636.67s16.54-28.79 0-55.26c0 0-17.86 23.59 0 55.26z" class="cls-2"/><path d="M1310.34 608.18s-15-27.66-47.35-26.77c.01 0 15.69 28.75 47.35 26.77z" class="cls-2"/><path d="M1310.34 553.48s-28.65-2.41-47.35 27.93c.01 0 35.56-1.41 47.35-27.93z" class="cls-2"/><path d="M1263 525.66s17.35 27.54 0 55.75c0 0-18.11-24.96 0-55.75z" class="cls-2"/><path d="M1215 553s29.92-1.5 48 28.39a54.47 54.47 0 0 1-48-28.39z" class="cls-2"/><path d="M1215 608.28s16-27.26 48-26.87c0 0-16.11 26.98-48 26.87z" class="cls-2"/></g><text class="cls-4" transform="translate(1240.72 687.71)"><tspan class="cls-5">D</tspan><tspan x="23.45" y="0">C</tspan></text><g class="cls-1"><path d="M1514 249.08s16.54-28.79 0-55.26c0 0-17.86 23.6 0 55.26z" class="cls-2"/><path d="M1561.35 220.58s-15-27.66-47.36-26.76c.01 0 15.7 28.75 47.36 26.76z" class="cls-2"/><path d="M1561.35 165.89s-28.66-2.41-47.36 27.93c.01 0 35.56-1.41 47.36-27.93z" class="cls-2"/><path d="M1514 138.07s17.36 27.54 0 55.75c0 0-18.1-24.97 0-55.75z" class="cls-2"/><path d="M1466 165.42s29.93-1.5 48 28.4a54.48 54.48 0 0 1-48-28.4z" class="cls-2"/><path d="M1466 220.68s16-27.25 48-26.86c0 0-16.11 26.98-48 26.86z" class="cls-2"/></g><g class="cls-1"><path d="M1513.66 442.88s16.54-28.79 0-55.26c0 0-17.85 23.59 0 55.26z" class="cls-2"/><path d="M1561 414.38s-15-27.66-47.35-26.76c.01 0 15.7 28.74 47.35 26.76z" class="cls-2"/><path d="M1561 359.68s-28.65-2.41-47.35 27.94c.01 0 35.57-1.41 47.35-27.94z" class="cls-2"/><path d="M1513.66 331.86s17.35 27.54 0 55.76c0 0-18.09-24.97 0-55.76z" class="cls-2"/><path d="M1465.64 359.22s29.93-1.5 48 28.4a54.47 54.47 0 0 1-48-28.4z" class="cls-2"/><path d="M1465.64 414.48s16-27.26 48-26.86c.02 0-16.08 26.97-48 26.86z" class="cls-2"/></g><text class="cls-4" transform="translate(1491.39 106.32)"><tspan class="cls-5">D</tspan><tspan x="23.45" y="0">C</tspan></text><text class="cls-4" transform="translate(1491.39 300.12)"><tspan class="cls-5">D</tspan><tspan x="23.45" y="0">C</tspan></text><text class="cls-4" transform="translate(1491.39 493.92)"><tspan class="cls-5">D</tspan><tspan x="23.45" y="0">C</tspan></text><g class="cls-1"><path d="M1514 830.47s16.54-28.79 0-55.26c0 0-17.86 23.6 0 55.26z" class="cls-2"/><path d="M1561.35 802s-15-27.65-47.36-26.76c.01-.03 15.7 28.76 47.36 26.76zm0-54.72s-28.66-2.41-47.36 27.93c.01 0 35.56-1.4 47.36-27.93z" class="cls-2"/><path d="M1514 719.46s17.36 27.54 0 55.75c0 0-18.1-24.96 0-55.75z" class="cls-2"/><path d="M1466 746.82s29.93-1.5 48 28.39a54.48 54.48 0 0 1-48-28.39z" class="cls-2"/><path d="M1466 802.08s16-27.26 48-26.87c0 0-16.11 26.98-48 26.87z" class="cls-2"/></g><g class="cls-1"><path d="M1513.66 636.67s16.54-28.79 0-55.26c0 0-17.85 23.59 0 55.26z" class="cls-2"/><path d="M1561 608.18s-15-27.66-47.35-26.77c.01 0 15.7 28.75 47.35 26.77z" class="cls-2"/><path d="M1561 553.48s-28.65-2.41-47.35 27.93c.01 0 35.57-1.41 47.35-27.93z" class="cls-2"/><path d="M1513.66 525.66s17.35 27.54 0 55.75c0 0-18.09-24.96 0-55.75z" class="cls-2"/><path d="M1465.64 553s29.93-1.5 48 28.39a54.47 54.47 0 0 1-48-28.39z" class="cls-2"/><path d="M1465.64 608.28s16-27.26 48-26.87c.02 0-16.08 26.98-48 26.87z" class="cls-2"/></g><text class="cls-4" transform="translate(1491.39 687.71)"><tspan class="cls-5">D</tspan><tspan x="23.45" y="0">C</tspan></text><g class="cls-1"><path d="M1768.67 249.08s16.54-28.79 0-55.26c0 0-17.85 23.6 0 55.26z" class="cls-2"/><path d="M1816 220.58s-15-27.66-47.35-26.76c.02 0 15.71 28.75 47.35 26.76z" class="cls-2"/><path d="M1816 165.89s-28.65-2.41-47.35 27.93c.02 0 35.58-1.41 47.35-27.93z" class="cls-2"/><path d="M1768.67 138.07s17.35 27.54 0 55.75c0 0-18.1-24.97 0-55.75z" class="cls-2"/><path d="M1720.64 165.42s29.93-1.5 48 28.4a54.49 54.49 0 0 1-48-28.4z" class="cls-2"/><path d="M1720.64 220.68s16-27.25 48-26.86c.03 0-16.07 26.98-48 26.86z" class="cls-2"/></g><g class="cls-1"><path d="M1768.33 442.88s16.54-28.79 0-55.26c0 0-17.85 23.59 0 55.26z" class="cls-2"/><path d="M1815.69 414.38s-15-27.66-47.36-26.76c0 0 15.67 28.74 47.36 26.76zm0-54.7s-28.66-2.41-47.36 27.94c0 0 35.56-1.41 47.36-27.94zm-47.36-27.82s17.36 27.54 0 55.76c0 0-18.09-24.97 0-55.76z" class="cls-2"/><path d="M1720.31 359.22s29.93-1.5 48 28.4a54.48 54.48 0 0 1-48-28.4z" class="cls-2"/><path d="M1720.31 414.48s16-27.26 48-26.86c.02 0-16.07 26.97-48 26.86z" class="cls-2"/></g><text class="cls-4" transform="translate(1746.07 106.32)"><tspan class="cls-5">D</tspan><tspan x="23.45" y="0">C</tspan></text><text class="cls-4" transform="translate(1746.07 300.12)"><tspan class="cls-5">D</tspan><tspan x="23.45" y="0">C</tspan></text><text class="cls-4" transform="translate(1746.07 493.92)"><tspan class="cls-5">D</tspan><tspan x="23.45" y="0">C</tspan></text><g class="cls-1"><path d="M1768.67 830.47s16.54-28.79 0-55.26c0 0-17.85 23.6 0 55.26z" class="cls-2"/><path d="M1816 802s-15-27.65-47.35-26.76c.02-.03 15.71 28.76 47.35 26.76zm0-54.72s-28.65-2.41-47.35 27.93c.02 0 35.58-1.4 47.35-27.93z" class="cls-2"/><path d="M1768.67 719.46s17.35 27.54 0 55.75c0 0-18.1-24.96 0-55.75z" class="cls-2"/><path d="M1720.64 746.82s29.93-1.5 48 28.39a54.49 54.49 0 0 1-48-28.39z" class="cls-2"/><path d="M1720.64 802.08s16-27.26 48-26.87c.03 0-16.07 26.98-48 26.87z" class="cls-2"/></g><g class="cls-1"><path d="M1768.33 636.67s16.54-28.79 0-55.26c0 0-17.85 23.59 0 55.26z" class="cls-2"/><path d="M1815.69 608.18s-15-27.66-47.36-26.77c0 0 15.67 28.75 47.36 26.77zm0-54.7s-28.66-2.41-47.36 27.93c0 0 35.56-1.41 47.36-27.93zm-47.36-27.82s17.36 27.54 0 55.75c0 0-18.09-24.96 0-55.75z" class="cls-2"/><path d="M1720.31 553s29.93-1.5 48 28.39a54.48 54.48 0 0 1-48-28.39z" class="cls-2"/><path d="M1720.31 608.28s16-27.26 48-26.87c.02 0-16.07 26.98-48 26.87z" class="cls-2"/></g><text class="cls-4" transform="translate(1746.07 687.71)"><tspan class="cls-5">D</tspan><tspan x="23.45" y="0">C</tspan></text><g class="cls-1"><path d="M2011.34 249.08s16.54-28.79 0-55.26c0 0-17.85 23.6 0 55.26z" class="cls-2"/><path d="M2058.69 220.58s-15-27.66-47.35-26.76c0 0 15.66 28.75 47.35 26.76zm0-54.69s-28.65-2.41-47.35 27.93c0 0 35.56-1.41 47.35-27.93zm-47.35-27.82s17.35 27.54 0 55.75c0 0-18.1-24.97 0-55.75z" class="cls-2"/><path d="M1963.32 165.42s29.92-1.5 48 28.4a54.47 54.47 0 0 1-48-28.4z" class="cls-2"/><path d="M1963.32 220.68s16-27.25 48-26.86c.02 0-16.08 26.98-48 26.86z" class="cls-2"/></g><g class="cls-1"><path d="M2011 442.88s16.55-28.79 0-55.26c0 0-17.84 23.59 0 55.26z" class="cls-2"/><path d="M2058.36 414.38s-15-27.66-47.36-26.76c0 0 15.7 28.74 47.36 26.76zm0-54.7s-28.66-2.41-47.36 27.94c0 0 35.56-1.41 47.36-27.94zM2011 331.86s17.36 27.54 0 55.76c0 0-18.09-24.97 0-55.76z" class="cls-2"/><path d="M1963 359.22s29.93-1.5 48 28.4a54.48 54.48 0 0 1-48-28.4z" class="cls-2"/><path d="M1963 414.48s16-27.26 48-26.86c0 0-16.09 26.97-48 26.86z" class="cls-2"/></g><text class="cls-4" transform="translate(1988.74 106.32)"><tspan class="cls-5">D</tspan><tspan x="23.45" y="0">C</tspan></text><text class="cls-4" transform="translate(1988.74 300.12)"><tspan class="cls-5">D</tspan><tspan x="23.45" y="0">C</tspan></text><text class="cls-4" transform="translate(1988.74 493.92)"><tspan class="cls-5">D</tspan><tspan x="23.45" y="0">C</tspan></text><g class="cls-1"><path d="M2011.34 830.47s16.54-28.79 0-55.26c0 0-17.85 23.6 0 55.26z" class="cls-2"/><path d="M2058.69 802s-15-27.65-47.35-26.76c0-.03 15.66 28.76 47.35 26.76zm0-54.72s-28.65-2.41-47.35 27.93c0 0 35.56-1.4 47.35-27.93zm-47.35-27.82s17.35 27.54 0 55.75c0 0-18.1-24.96 0-55.75z" class="cls-2"/><path d="M1963.32 746.82s29.92-1.5 48 28.39a54.47 54.47 0 0 1-48-28.39z" class="cls-2"/><path d="M1963.32 802.08s16-27.26 48-26.87c.02 0-16.08 26.98-48 26.87z" class="cls-2"/></g><g class="cls-1"><path d="M2011 636.67s16.55-28.79 0-55.26c0 0-17.84 23.59 0 55.26z" class="cls-2"/><path d="M2058.36 608.18s-15-27.66-47.36-26.77c0 0 15.7 28.75 47.36 26.77zm0-54.7s-28.66-2.41-47.36 27.93c0 0 35.56-1.41 47.36-27.93zM2011 525.66s17.36 27.54 0 55.75c0 0-18.09-24.96 0-55.75z" class="cls-2"/><path d="M1963 553s29.93-1.5 48 28.39a54.48 54.48 0 0 1-48-28.39z" class="cls-2"/><path d="M1963 608.28s16-27.26 48-26.87c0 0-16.09 26.98-48 26.87z" class="cls-2"/></g><text class="cls-4" transform="translate(1988.74 687.71)"><tspan class="cls-5">D</tspan><tspan x="23.45" y="0">C</tspan></text><text class="cls-4" transform="translate(630.39 591.04)"><tspan class="cls-5">D</tspan><tspan x="23.45" y="0">C</tspan></text><g class="cls-1"><path d="M414.66 540.84s16.54-28.79 0-55.26c0 0-17.85 23.6 0 55.26z" class="cls-3"/><path d="M462 512.35s-15-27.66-47.36-26.77c.02 0 15.72 28.75 47.36 26.77z" class="cls-3"/><path d="M462 457.65s-28.66-2.41-47.36 27.93c.02 0 35.58-1.4 47.36-27.93z" class="cls-3"/><path d="M414.66 429.83s17.35 27.54 0 55.75c0 0-18.09-24.96 0-55.75z" class="cls-3"/><path d="M366.64 457.19s29.93-1.5 48 28.39a54.47 54.47 0 0 1-48-28.39z" class="cls-3"/><path d="M366.64 512.45s16-27.26 48-26.87c.02 0-16.08 26.98-48 26.87z" class="cls-3"/></g><g class="cls-1"><path d="M414 152.18s16.55-28.79 0-55.26c0 0-17.85 23.6 0 55.26z" class="cls-3"/><path d="M461.35 123.68S446.37 96 414 96.92c0 0 15.69 28.75 47.35 26.76zm0-54.68S432.69 66.58 414 96.92c0 0 35.55-1.4 47.35-27.92zM414 41.17s17.36 27.54 0 55.75c0 0-18.1-24.92 0-55.75z" class="cls-3"/><path d="M366 68.53s29.9-1.53 48 28.39a54.48 54.48 0 0 1-48-28.39z" class="cls-3"/><path d="M366 123.79s16-27.26 48-26.87c0 0-16.1 26.98-48 26.87z" class="cls-3"/></g><g class="cls-1"><path d="M414.33 346.51s16.54-28.79 0-55.26c0 0-17.85 23.6 0 55.26z" class="cls-3"/><path d="M461.68 318s-15-27.65-47.35-26.76c0 .01 15.67 28.76 47.35 26.76z" class="cls-3"/><path d="M461.68 263.32s-28.65-2.41-47.35 27.93c0 0 35.56-1.4 47.35-27.93zm-47.35-27.82s17.35 27.54 0 55.75c0 0-18.1-24.96 0-55.75z" class="cls-3"/><path d="M366.31 262.86s29.92-1.5 48 28.39a54.47 54.47 0 0 1-48-28.39z" class="cls-3"/><path d="M366.31 318.12s16-27.26 48-26.87c.02 0-16.08 26.98-48 26.87z" class="cls-3"/></g><text class="cls-4" transform="translate(391.4 203.49)"><tspan class="cls-5">D</tspan><tspan x="23.45" y="0">C</tspan></text><text class="cls-4" transform="translate(391.23 397.82)"><tspan class="cls-5">D</tspan><tspan x="23.45" y="0">C</tspan></text><g class="cls-1"><path d="M414 733.57s16.55-28.79 0-55.26c0 0-17.85 23.6 0 55.26z" class="cls-3"/><path d="M461.35 705.08s-15-27.66-47.36-26.77c.01 0 15.7 28.75 47.36 26.77z" class="cls-3"/><path d="M461.35 650.38S432.69 648 414 678.31c0 0 35.55-1.4 47.35-27.93zM414 622.56s17.36 27.54 0 55.75c0 0-18.1-24.96 0-55.75z" class="cls-3"/><path d="M366 649.92s29.93-1.5 48 28.39a54.48 54.48 0 0 1-48-28.39z" class="cls-3"/><path d="M366 705.18s16-27.26 48-26.87c0 0-16.1 26.98-48 26.87z" class="cls-3"/></g><text class="cls-4" transform="translate(391.4 784.88)"><tspan class="cls-5">D</tspan><tspan x="23.45" y="0">C</tspan></text><text class="cls-4" transform="translate(391.06 591.04)"><tspan class="cls-5">D</tspan><tspan x="23.45" y="0">C</tspan></text><g class="cls-1"><path d="M172.33 540.84s16.54-28.79 0-55.26c0 0-17.85 23.6 0 55.26z" class="cls-3"/><path d="M219.68 512.35s-15-27.66-47.35-26.77c0 0 15.67 28.75 47.35 26.77zm0-54.7s-28.65-2.41-47.35 27.93c0 0 35.56-1.4 47.35-27.93zm-47.35-27.82s17.35 27.54 0 55.75c0 0-18.09-24.96 0-55.75z" class="cls-3"/><path d="M124.31 457.19s29.93-1.5 48 28.39a54.47 54.47 0 0 1-48-28.39z" class="cls-3"/><path d="M124.31 512.45s16-27.26 48-26.87c.02 0-16.08 26.98-48 26.87z" class="cls-3"/></g><g class="cls-1"><path d="M171.66 152.18s16.54-28.79 0-55.26c0 0-17.85 23.6 0 55.26z" class="cls-3"/><path d="M219 123.68S204 96 171.66 96.92c0 0 15.7 28.75 47.34 26.76z" class="cls-3"/><path d="M219 69s-28.66-2.41-47.36 27.93c.02-.01 35.58-1.41 47.36-27.93z" class="cls-3"/><path d="M171.66 41.17s17.36 27.54 0 55.75c0 0-18.09-24.92 0-55.75z" class="cls-3"/><path d="M123.64 68.53s29.93-1.5 48 28.39a54.48 54.48 0 0 1-48-28.39z" class="cls-3"/><path d="M123.64 123.79s16-27.26 48-26.87c.02 0-16.07 26.98-48 26.87z" class="cls-3"/></g><g class="cls-1"><path d="M172 346.51s16.54-28.79 0-55.26c0 0-17.85 23.6 0 55.26z" class="cls-3"/><path d="M219.35 318s-15-27.65-47.35-26.76c0 .01 15.69 28.76 47.35 26.76z" class="cls-3"/><path d="M219.35 263.32s-28.65-2.41-47.35 27.93c0 0 35.56-1.4 47.35-27.93zM172 235.5s17.35 27.54 0 55.75c0 0-18.1-24.96 0-55.75z" class="cls-3"/><path d="M124 262.86s29.93-1.5 48 28.39a54.49 54.49 0 0 1-48-28.39z" class="cls-3"/><path d="M124 318.12s16-27.26 48-26.87c0 0-16.1 26.98-48 26.87z" class="cls-3"/></g><text class="cls-4" transform="translate(149.06 203.49)"><tspan class="cls-5">D</tspan><tspan x="23.45" y="0">C</tspan></text><text class="cls-4" transform="translate(148.9 397.82)"><tspan class="cls-5">D</tspan><tspan x="23.45" y="0">C</tspan></text><g class="cls-1"><path d="M171.66 733.57s16.54-28.79 0-55.26c0 0-17.85 23.6 0 55.26z" class="cls-3"/><path d="M219 705.08s-15-27.66-47.36-26.77c.02 0 15.72 28.75 47.36 26.77z" class="cls-3"/><path d="M219 650.38s-28.66-2.41-47.36 27.93c.02 0 35.58-1.4 47.36-27.93z" class="cls-3"/><path d="M171.66 622.56s17.36 27.54 0 55.75c0 0-18.09-24.96 0-55.75z" class="cls-3"/><path d="M123.64 649.92s29.93-1.5 48 28.39a54.48 54.48 0 0 1-48-28.39z" class="cls-3"/><path d="M123.64 705.18s16-27.26 48-26.87c.02 0-16.07 26.98-48 26.87z" class="cls-3"/></g><text class="cls-4" transform="translate(149.06 784.88)"><tspan class="cls-5">D</tspan><tspan x="23.45" y="0">C</tspan></text><text class="cls-4" transform="translate(148.73 591.04)"><tspan class="cls-5">D</tspan><tspan x="23.45" y="0">C</tspan></text><g class="cls-1"><path d="M895 540.84s16.54-28.79 0-55.26c0 0-17.86 23.6 0 55.26z" class="cls-3"/><path d="M942.34 512.35s-15-27.66-47.35-26.77c.01 0 15.69 28.75 47.35 26.77z" class="cls-3"/><path d="M942.34 457.65s-28.65-2.41-47.35 27.93c.01 0 35.56-1.4 47.35-27.93z" class="cls-3"/><path d="M895 429.83s17.35 27.54 0 55.75c0 0-18.11-24.96 0-55.75z" class="cls-3"/><path d="M847 457.19s29.93-1.5 48 28.39a54.49 54.49 0 0 1-48-28.39z" class="cls-3"/><path d="M847 512.45s16-27.26 48-26.87c0 0-16.11 26.98-48 26.87z" class="cls-3"/></g><g class="cls-1"><path d="M894.32 152.18s16.54-28.79 0-55.26c0 0-17.85 23.6 0 55.26z" class="cls-3"/><path d="M941.67 123.68S926.7 96 894.32 96.92c0 0 15.68 28.75 47.35 26.76zm0-54.68S913 66.58 894.32 96.92c0 0 35.56-1.4 47.35-27.92zm-47.35-27.83s17.35 27.54 0 55.75c0 0-18.09-24.92 0-55.75z" class="cls-3"/><path d="M846.3 68.53s29.93-1.5 48 28.39a54.47 54.47 0 0 1-48-28.39z" class="cls-3"/><path d="M846.3 123.79s16-27.26 48-26.87c.02 0-16.08 26.98-48 26.87z" class="cls-3"/></g><g class="cls-1"><path d="M894.65 346.51s16.54-28.79 0-55.26c0 0-17.85 23.6 0 55.26z" class="cls-3"/><path d="M942 318s-15-27.65-47.36-26.76c.01.01 15.71 28.76 47.36 26.76z" class="cls-3"/><path d="M942 263.32s-28.66-2.41-47.36 27.93c.01 0 35.57-1.4 47.36-27.93z" class="cls-3"/><path d="M894.65 235.5s17.36 27.54 0 55.75c0 0-18.09-24.96 0-55.75z" class="cls-3"/><path d="M846.63 262.86s29.93-1.5 48 28.39a54.48 54.48 0 0 1-48-28.39z" class="cls-3"/><path d="M846.63 318.12s16-27.26 48-26.87c.02 0-16.07 26.98-48 26.87z" class="cls-3"/></g><text class="cls-4" transform="translate(871.72 203.49)"><tspan class="cls-5">D</tspan><tspan x="23.45" y="0">C</tspan></text><text class="cls-4" transform="translate(871.56 397.82)"><tspan class="cls-5">D</tspan><tspan x="23.45" y="0">C</tspan></text><g class="cls-1"><path d="M894.32 733.57s16.54-28.79 0-55.26c0 0-17.85 23.6 0 55.26z" class="cls-3"/><path d="M941.67 705.08s-15-27.66-47.35-26.77c0 0 15.68 28.75 47.35 26.77zm0-54.7S913 648 894.32 678.31c0 0 35.56-1.4 47.35-27.93zm-47.35-27.82s17.35 27.54 0 55.75c0 0-18.09-24.96 0-55.75z" class="cls-3"/><path d="M846.3 649.92s29.93-1.5 48 28.39a54.47 54.47 0 0 1-48-28.39z" class="cls-3"/><path d="M846.3 705.18s16-27.26 48-26.87c.02 0-16.08 26.98-48 26.87z" class="cls-3"/></g><text class="cls-4" transform="translate(871.72 784.88)"><tspan class="cls-5">D</tspan><tspan x="23.45" y="0">C</tspan></text><text class="cls-4" transform="translate(871.39 591.04)"><tspan class="cls-5">D</tspan><tspan x="23.45" y="0">C</tspan></text><g class="cls-1"><path d="M1139.65 540.84s16.54-28.79 0-55.26c0 0-17.85 23.6 0 55.26z" class="cls-3"/><path d="M1187 512.35s-15-27.66-47.36-26.77c.01 0 15.71 28.75 47.36 26.77z" class="cls-3"/><path d="M1187 457.65s-28.66-2.41-47.36 27.93c.01 0 35.57-1.4 47.36-27.93z" class="cls-3"/><path d="M1139.65 429.83s17.36 27.54 0 55.75c0 0-18.09-24.96 0-55.75z" class="cls-3"/><path d="M1091.63 457.19s29.93-1.5 48 28.39a54.48 54.48 0 0 1-48-28.39z" class="cls-3"/><path d="M1091.63 512.45s16-27.26 48-26.87c.02 0-16.07 26.98-48 26.87z" class="cls-3"/></g><g class="cls-1"><path d="M1139 152.18s16.54-28.79 0-55.26c0 0-17.86 23.6 0 55.26z" class="cls-3"/><path d="M1186.34 123.68S1171.36 96 1139 96.92c0 0 15.68 28.75 47.34 26.76z" class="cls-3"/><path d="M1186.34 69s-28.65-2.41-47.35 27.93c.01-.01 35.56-1.41 47.35-27.93z" class="cls-3"/><path d="M1139 41.17s17.35 27.54 0 55.75c0 0-18.11-24.92 0-55.75z" class="cls-3"/><path d="M1091 68.53s29.93-1.5 48 28.39a54.49 54.49 0 0 1-48-28.39z" class="cls-3"/><path d="M1091 123.79s16-27.26 48-26.87c0 0-16.11 26.98-48 26.87z" class="cls-3"/></g><g class="cls-1"><path d="M1139.32 346.51s16.54-28.79 0-55.26c0 0-17.85 23.6 0 55.26z" class="cls-3"/><path d="M1186.67 318s-15-27.65-47.35-26.76c0 .01 15.68 28.76 47.35 26.76z" class="cls-3"/><path d="M1186.67 263.32s-28.65-2.41-47.35 27.93c0 0 35.56-1.4 47.35-27.93zm-47.35-27.82s17.35 27.54 0 55.75c0 0-18.09-24.96 0-55.75z" class="cls-3"/><path d="M1091.3 262.86s29.93-1.5 48 28.39a54.47 54.47 0 0 1-48-28.39z" class="cls-3"/><path d="M1091.3 318.12s16-27.26 48-26.87c.02 0-16.08 26.98-48 26.87z" class="cls-3"/></g><text class="cls-4" transform="translate(1116.39 203.49)"><tspan class="cls-5">D</tspan><tspan x="23.45" y="0">C</tspan></text><text class="cls-4" transform="translate(1116.22 397.82)"><tspan class="cls-5">D</tspan><tspan x="23.45" y="0">C</tspan></text><g class="cls-1"><path d="M1139 733.57s16.54-28.79 0-55.26c0 0-17.86 23.6 0 55.26z" class="cls-3"/><path d="M1186.34 705.08s-15-27.66-47.35-26.77c.01 0 15.69 28.75 47.35 26.77z" class="cls-3"/><path d="M1186.34 650.38s-28.65-2.38-47.34 27.93c0 0 35.55-1.4 47.34-27.93zM1139 622.56s17.35 27.54 0 55.75c0 0-18.11-24.96 0-55.75z" class="cls-3"/><path d="M1091 649.92s29.93-1.5 48 28.39a54.49 54.49 0 0 1-48-28.39z" class="cls-3"/><path d="M1091 705.18s16-27.26 48-26.87c0 0-16.11 26.98-48 26.87z" class="cls-3"/></g><text class="cls-4" transform="translate(1116.39 784.88)"><tspan class="cls-5">D</tspan><tspan x="23.45" y="0">C</tspan></text><text class="cls-4" transform="translate(1116.05 591.04)"><tspan class="cls-5">D</tspan><tspan x="23.45" y="0">C</tspan></text><g class="cls-1"><path d="M1388.32 540.84s16.54-28.79 0-55.26c0 0-17.85 23.6 0 55.26z" class="cls-3"/><path d="M1435.68 512.35s-15-27.66-47.36-26.77c0 0 15.68 28.75 47.36 26.77zm0-54.7s-28.66-2.41-47.36 27.93c0 0 35.56-1.4 47.36-27.93zm-47.36-27.82s17.36 27.54 0 55.75c0 0-18.09-24.96 0-55.75z" class="cls-3"/><path d="M1340.3 457.19s29.93-1.5 48 28.39a54.48 54.48 0 0 1-48-28.39z" class="cls-3"/><path d="M1340.3 512.45s16-27.26 48-26.87c.02 0-16.07 26.98-48 26.87z" class="cls-3"/></g><g class="cls-1"><path d="M1387.66 152.18s16.54-28.79 0-55.26c0 0-17.85 23.6 0 55.26z" class="cls-3"/><path d="M1435 123.68s-15-27.68-47.34-26.76c0 0 15.69 28.75 47.34 26.76z" class="cls-3"/><path d="M1435 69s-28.65-2.41-47.35 27.93c.01-.01 35.57-1.41 47.35-27.93z" class="cls-3"/><path d="M1387.66 41.17s17.35 27.54 0 55.75c0 0-18.1-24.92 0-55.75z" class="cls-3"/><path d="M1339.63 68.53s29.93-1.5 48 28.39a54.49 54.49 0 0 1-48-28.39z" class="cls-3"/><path d="M1339.63 123.79s16-27.26 48-26.87c.03 0-16.07 26.98-48 26.87z" class="cls-3"/></g><g class="cls-1"><path d="M1388 346.51s16.54-28.79 0-55.26c0 0-17.86 23.6 0 55.26z" class="cls-3"/><path d="M1435.34 318s-15-27.65-47.35-26.76c.01.01 15.69 28.76 47.35 26.76z" class="cls-3"/><path d="M1435.34 263.32s-28.65-2.41-47.35 27.93c.01 0 35.56-1.4 47.35-27.93z" class="cls-3"/><path d="M1388 235.5s17.35 27.54 0 55.75c0 0-18.1-24.96 0-55.75z" class="cls-3"/><path d="M1340 262.86s29.93-1.5 48 28.39a54.47 54.47 0 0 1-48-28.39z" class="cls-3"/><path d="M1340 318.12s16-27.26 48-26.87c0 0-16.11 26.98-48 26.87z" class="cls-3"/></g><text class="cls-4" transform="translate(1365.06 203.49)"><tspan class="cls-5">D</tspan><tspan x="23.45" y="0">C</tspan></text><text class="cls-4" transform="translate(1364.89 397.82)"><tspan class="cls-5">D</tspan><tspan x="23.45" y="0">C</tspan></text><g class="cls-1"><path d="M1387.66 733.57s16.54-28.79 0-55.26c0 0-17.85 23.6 0 55.26z" class="cls-3"/><path d="M1435 705.08s-15-27.66-47.35-26.77c.01 0 15.7 28.75 47.35 26.77z" class="cls-3"/><path d="M1435 650.38s-28.65-2.41-47.35 27.93c.01 0 35.57-1.4 47.35-27.93z" class="cls-3"/><path d="M1387.66 622.56s17.35 27.54 0 55.75c0 0-18.1-24.96 0-55.75z" class="cls-3"/><path d="M1339.63 649.92s29.93-1.5 48 28.39a54.49 54.49 0 0 1-48-28.39z" class="cls-3"/><path d="M1339.63 705.18s16-27.26 48-26.87c.03 0-16.07 26.98-48 26.87z" class="cls-3"/></g><text class="cls-4" transform="translate(1365.06 784.88)"><tspan class="cls-5">D</tspan><tspan x="23.45" y="0">C</tspan></text><text class="cls-4" transform="translate(1364.72 591.04)"><tspan class="cls-5">D</tspan><tspan x="23.45" y="0">C</tspan></text><g class="cls-1"><path d="M1641 540.84s16.54-28.79 0-55.26c0 0-17.85 23.6 0 55.26z" class="cls-3"/><path d="M1688.35 512.35s-15-27.66-47.35-26.77c0 0 15.69 28.75 47.35 26.77zm0-54.7s-28.65-2.41-47.35 27.93c0 0 35.56-1.4 47.35-27.93zM1641 429.83s17.35 27.54 0 55.75c0 0-18.1-24.96 0-55.75z" class="cls-3"/><path d="M1593 457.19s29.93-1.5 48 28.39a54.49 54.49 0 0 1-48-28.39z" class="cls-3"/><path d="M1593 512.45s16-27.26 48-26.87c0 0-16.1 26.98-48 26.87z" class="cls-3"/></g><g class="cls-1"><path d="M1640.33 152.18s16.54-28.79 0-55.26c0 0-17.85 23.6 0 55.26z" class="cls-3"/><path d="M1687.68 123.68s-15-27.65-47.35-26.76c0 0 15.67 28.75 47.35 26.76z" class="cls-3"/><path d="M1687.68 69s-28.65-2.41-47.35 27.93c0-.01 35.56-1.41 47.35-27.93zm-47.35-27.83s17.35 27.54 0 55.75c0 0-18.09-24.92 0-55.75z" class="cls-3"/><path d="M1592.31 68.53s29.93-1.5 48 28.39a54.47 54.47 0 0 1-48-28.39z" class="cls-3"/><path d="M1592.31 123.79s16-27.26 48-26.87c.02 0-16.08 26.98-48 26.87z" class="cls-3"/></g><g class="cls-1"><path d="M1640.66 346.51s16.54-28.79 0-55.26c0 0-17.85 23.6 0 55.26z" class="cls-3"/><path d="M1688 318s-15-27.65-47.36-26.76c.02.01 15.72 28.76 47.36 26.76z" class="cls-3"/><path d="M1688 263.32s-28.66-2.41-47.36 27.93c.02 0 35.58-1.4 47.36-27.93z" class="cls-3"/><path d="M1640.66 235.5s17.36 27.54 0 55.75c0 0-18.09-24.96 0-55.75z" class="cls-3"/><path d="M1592.64 262.86s29.93-1.5 48 28.39a54.48 54.48 0 0 1-48-28.39z" class="cls-3"/><path d="M1592.64 318.12s16-27.26 48-26.87c.02 0-16.08 26.98-48 26.87z" class="cls-3"/></g><text class="cls-4" transform="translate(1617.73 203.49)"><tspan class="cls-5">D</tspan><tspan x="23.45" y="0">C</tspan></text><text class="cls-4" transform="translate(1617.56 397.82)"><tspan class="cls-5">D</tspan><tspan x="23.45" y="0">C</tspan></text><g class="cls-1"><path d="M1640.33 733.57s16.54-28.79 0-55.26c0 0-17.85 23.6 0 55.26z" class="cls-3"/><path d="M1687.68 705.08s-15-27.66-47.35-26.77c0 0 15.67 28.75 47.35 26.77zm0-54.7s-28.68-2.38-47.35 27.93c0 0 35.56-1.4 47.35-27.93zm-47.35-27.82s17.35 27.54 0 55.75c0 0-18.09-24.96 0-55.75z" class="cls-3"/><path d="M1592.31 649.92s29.93-1.5 48 28.39a54.47 54.47 0 0 1-48-28.39z" class="cls-3"/><path d="M1592.31 705.18s16-27.26 48-26.87c.02 0-16.08 26.98-48 26.87z" class="cls-3"/></g><text class="cls-4" transform="translate(1617.73 784.88)"><tspan class="cls-5">D</tspan><tspan x="23.45" y="0">C</tspan></text><text class="cls-4" transform="translate(1617.4 591.04)"><tspan class="cls-5">D</tspan><tspan x="23.45" y="0">C</tspan></text><g class="cls-1"><path d="M1897.34 540.84s16.54-28.79 0-55.26c0 0-17.85 23.6 0 55.26z" class="cls-3"/><path d="M1944.69 512.35s-15-27.66-47.35-26.77c0 0 15.66 28.75 47.35 26.77zm0-54.7s-28.65-2.41-47.35 27.93c0 0 35.56-1.4 47.35-27.93zm-47.35-27.82s17.35 27.54 0 55.75c0 0-18.1-24.96 0-55.75z" class="cls-3"/><path d="M1849.32 457.19s29.92-1.5 48 28.39a54.47 54.47 0 0 1-48-28.39z" class="cls-3"/><path d="M1849.32 512.45s16-27.26 48-26.87c.02 0-16.08 26.98-48 26.87z" class="cls-3"/></g><g class="cls-1"><path d="M1896.67 152.18s16.54-28.79 0-55.26c0 0-17.85 23.6 0 55.26z" class="cls-3"/><path d="M1944 123.68s-15-27.65-47.36-26.76c.03 0 15.72 28.75 47.36 26.76z" class="cls-3"/><path d="M1944 69s-28.66-2.41-47.36 27.93c.03-.01 35.59-1.41 47.36-27.93z" class="cls-3"/><path d="M1896.67 41.17s17.35 27.54 0 55.75c0 0-18.09-24.92 0-55.75z" class="cls-3"/><path d="M1848.65 68.53s29.93-1.5 48 28.39a54.47 54.47 0 0 1-48-28.39z" class="cls-3"/><path d="M1848.65 123.79s16-27.26 48-26.87c.02 0-16.08 26.98-48 26.87z" class="cls-3"/></g><g class="cls-1"><path d="M1897 346.51s16.55-28.79 0-55.26c0 0-17.84 23.6 0 55.26z" class="cls-3"/><path d="M1944.36 318s-15-27.65-47.36-26.76c0 .01 15.7 28.76 47.36 26.76z" class="cls-3"/><path d="M1944.36 263.32s-28.66-2.41-47.36 27.93c0 0 35.57-1.4 47.36-27.93zM1897 235.5s17.36 27.54 0 55.75c0 0-18.09-24.96 0-55.75z" class="cls-3"/><path d="M1849 262.86s29.93-1.5 48 28.39a54.48 54.48 0 0 1-48-28.39z" class="cls-3"/><path d="M1849 318.12s16-27.26 48-26.87c0 0-16.09 26.98-48 26.87z" class="cls-3"/></g><text class="cls-4" transform="translate(1874.07 203.49)"><tspan class="cls-5">D</tspan><tspan x="23.45" y="0">C</tspan></text><g class="cls-1"><path d="M534.66 55.28s16.54-28.79 0-55.26c0-.02-17.85 23.6 0 55.26z" class="cls-2"/><path d="M582 26.78S567-.87 534.66 0c0 0 15.69 28.77 47.34 26.78zm0-54.69S553.36-30.32 534.66 0c0 0 35.56-1.38 47.34-27.91zm-47.34-27.82S552-28.19 534.66 0c0 0-18.09-24.94 0-55.73z" class="cls-2"/><path d="M486.64-28.37s29.93-1.5 48 28.39a54.47 54.47 0 0 1-48-28.39z" class="cls-2"/><path d="M486.64 26.89s16-27.26 48-26.87c.02-.02-16.08 26.98-48 26.87z" class="cls-2"/></g><text class="cls-4" transform="translate(630.72 9.69)"><tspan class="cls-5">D</tspan><tspan x="23.45" y="0">C</tspan></text><g class="cls-1"><path d="M293.66 55.28s16.54-28.79 0-55.26c0-.02-17.85 23.6 0 55.26z" class="cls-2"/><path d="M341 26.78S326-.87 293.66 0c0 0 15.7 28.77 47.34 26.78zm0-54.69S312.36-30.32 293.66 0c0 0 35.56-1.38 47.34-27.91zm-47.34-27.82S311-28.19 293.66 0c0 0-18.09-24.94 0-55.73z" class="cls-2"/><path d="M245.64-28.37s29.93-1.5 48 28.39a54.48 54.48 0 0 1-48-28.39z" class="cls-2"/><path d="M245.64 26.89s16-27.26 48-26.87c.02-.02-16.08 26.98-48 26.87z" class="cls-2"/></g><g class="cls-1"><path d="M49.66 55.28S66.2 26.49 49.66 0c0 0-17.85 23.62 0 55.28z" class="cls-2"/><path d="M97 26.78S82-.87 49.66 0c0 0 15.7 28.77 47.34 26.78zm0-54.69S68.36-30.32 49.66 0c0 0 35.56-1.38 47.34-27.91zM49.66-55.73S67-28.19 49.66 0c0 0-18.09-24.94 0-55.73z" class="cls-2"/><path d="M1.64-28.37s29.93-1.5 48 28.39a54.48 54.48 0 0 1-48-28.39z" class="cls-2"/><path d="M1.64 26.89S17.66-.37 49.66 0c0 0-16.09 27-48.02 26.89z" class="cls-2"/></g><g class="cls-1"><path d="M774 55.28S790.53 26.49 774 0c0 0-17.86 23.62 0 55.28z" class="cls-2"/><path d="M821.34 26.78S806.37-.87 774 0c0 0 15.68 28.77 47.34 26.78zm0-54.69S792.69-30.32 774 0c0 0 35.55-1.38 47.34-27.91zM774-55.73S791.34-28.19 774 0c0 0-18.11-24.94 0-55.73z" class="cls-2"/><path d="M726-28.37s29.89-1.5 48 28.37a54.47 54.47 0 0 1-48-28.37z" class="cls-2"/><path d="M726 26.89S742-.37 774 0c0 0-16.11 27-48 26.89z" class="cls-2"/></g><g class="cls-1"><path d="M1016.65 55.28s16.54-28.79 0-55.26c0-.02-17.85 23.6 0 55.26z" class="cls-2"/><path d="M1064 26.78S1049-.87 1016.65 0c0 0 15.7 28.77 47.35 26.78zm0-54.69s-28.65-2.41-47.35 27.91c0 0 35.56-1.38 47.35-27.91z" class="cls-2"/><path d="M1016.65-55.73s17.36 27.54 0 55.75c0-.02-18.09-24.96 0-55.75z" class="cls-2"/><path d="M968.63-28.37s29.93-1.5 48 28.39a54.48 54.48 0 0 1-48-28.39z" class="cls-2"/><path d="M968.63 26.89s16-27.26 48-26.87c.02-.02-16.07 26.98-48 26.87z" class="cls-2"/></g><g class="cls-1"><path d="M1263.32 55.28s16.54-28.79 0-55.26c0-.02-17.85 23.6 0 55.26z" class="cls-2"/><path d="M1310.68 26.78S1295.7-.87 1263.32 0c0 0 15.68 28.77 47.36 26.78zm0-54.69S1282-30.32 1263.32 0c0 0 35.56-1.38 47.36-27.91z" class="cls-2"/><path d="M1263.32-55.73s17.35 27.54 0 55.75c0-.02-18.09-24.96 0-55.75z" class="cls-2"/><path d="M1215.3-28.37s29.93-1.5 48 28.39a54.47 54.47 0 0 1-48-28.39z" class="cls-2"/><path d="M1215.3 26.89s16-27.26 48-26.87c.02-.02-16.08 26.98-48 26.87z" class="cls-2"/></g><g class="cls-1"><path d="M1514 55.28s16.54-28.79 0-55.26c0-.02-17.86 23.6 0 55.26z" class="cls-2"/><path d="M1561.35 26.78S1546.37-.87 1514 0c0 0 15.69 28.77 47.35 26.78zm0-54.69S1532.69-30.32 1514 0c0 0 35.55-1.38 47.35-27.91z" class="cls-2"/><path d="M1514-55.73s17.36 27.54 0 55.75c0-.02-18.1-24.96 0-55.75z" class="cls-2"/><path d="M1466-28.37s29.93-1.5 48 28.39a54.48 54.48 0 0 1-48-28.39z" class="cls-2"/><path d="M1466 26.89S1482-.37 1514 0c0 0-16.11 27-48 26.89z" class="cls-2"/></g><g class="cls-1"><path d="M1768.67 55.28s16.54-28.79 0-55.26c0-.02-17.85 23.6 0 55.26z" class="cls-2"/><path d="M1816 26.78S1801-.87 1768.67 0c0 0 15.69 28.77 47.33 26.78zm0-54.69s-28.63-2.41-47.33 27.91c0 0 35.56-1.38 47.33-27.91z" class="cls-2"/><path d="M1768.67-55.73s17.35 27.54 0 55.75c0-.02-18.1-24.96 0-55.75z" class="cls-2"/><path d="M1720.64-28.37s29.93-1.5 48 28.39a54.49 54.49 0 0 1-48-28.39z" class="cls-2"/><path d="M1720.64 26.89s16-27.26 48-26.87c.03-.02-16.07 26.98-48 26.87z" class="cls-2"/></g><g class="cls-1"><path d="M2011.34 55.28s16.54-28.79 0-55.26c0-.02-17.85 23.6 0 55.26z" class="cls-2"/><path d="M2058.69 26.78S2043.72-.87 2011.34 0c0 0 15.66 28.77 47.35 26.78zm0-54.69S2030-30.32 2011.34 0c0 0 35.56-1.38 47.35-27.91z" class="cls-2"/><path d="M2011.34-55.73s17.35 27.54 0 55.75c0-.02-18.1-24.96 0-55.75z" class="cls-2"/><path d="M1963.32-28.37s29.92-1.5 48 28.39a54.47 54.47 0 0 1-48-28.39z" class="cls-2"/><path d="M1963.32 26.89s16-27.26 48-26.87c.02-.02-16.08 26.98-48 26.87z" class="cls-2"/></g><text class="cls-4" transform="translate(391.4 9.69)"><tspan class="cls-5">D</tspan><tspan x="23.45" y="0">C</tspan></text><text class="cls-4" transform="translate(149.06 9.69)"><tspan class="cls-5">D</tspan><tspan x="23.45" y="0">C</tspan></text><text class="cls-4" transform="translate(871.72 9.69)"><tspan class="cls-5">D</tspan><tspan x="23.45" y="0">C</tspan></text><text class="cls-4" transform="translate(1116.39 9.69)"><tspan class="cls-5">D</tspan><tspan x="23.45" y="0">C</tspan></text><text class="cls-4" transform="translate(1365.06 9.69)"><tspan class="cls-5">D</tspan><tspan x="23.45" y="0">C</tspan></text><text class="cls-4" transform="translate(1617.73 9.69)"><tspan class="cls-5">D</tspan><tspan x="23.45" y="0">C</tspan></text><text class="cls-4" transform="translate(1874.07 9.69)"><tspan class="cls-5">D</tspan><tspan x="23.45" y="0">C</tspan></text><text class="cls-4" transform="translate(1873.91 397.82)"><tspan class="cls-5">D</tspan><tspan x="23.45" y="0">C</tspan></text><g class="cls-1"><path d="M1896.67 733.57s16.54-28.79 0-55.26c0 0-17.85 23.6 0 55.26z" class="cls-3"/><path d="M1944 705.08s-15-27.66-47.36-26.77c.03 0 15.72 28.75 47.36 26.77z" class="cls-3"/><path d="M1944 650.38s-28.66-2.41-47.36 27.93c.03 0 35.59-1.4 47.36-27.93z" class="cls-3"/><path d="M1896.67 622.56s17.35 27.54 0 55.75c0 0-18.09-24.96 0-55.75z" class="cls-3"/><path d="M1848.65 649.92s29.93-1.5 48 28.39a54.47 54.47 0 0 1-48-28.39z" class="cls-3"/><path d="M1848.65 705.18s16-27.26 48-26.87c.02 0-16.08 26.98-48 26.87z" class="cls-3"/></g><text class="cls-4" transform="translate(1874.07 784.88)"><tspan class="cls-5">D</tspan><tspan x="23.45" y="0">C</tspan></text><text class="cls-4" transform="translate(1873.74 591.04)"><tspan class="cls-5">D</tspan><tspan x="23.45" y="0">C</tspan></text></svg>