<svg id="Layer_1" data-name="Layer 1" xmlns="http://www.w3.org/2000/svg" viewBox="0 0 32 32"><defs><style>.cls-1{fill:#231f20;}</style></defs><title>1Artboard 9</title><path class="cls-1" d="M16.09,31.55s4.64-8.07,0-15.48C16.09,16.07,11.09,22.68,16.09,31.55Z"/><path class="cls-1" d="M29.36,23.57s-4.2-7.75-13.27-7.5C16.09,16.07,20.49,24.12,29.36,23.57Z"/><path class="cls-1" d="M29.36,8.24s-8-.67-13.27,7.83C16.09,16.07,26.06,15.68,29.36,8.24Z"/><path class="cls-1" d="M16.09.45s4.86,7.72,0,15.62A14.6,14.6,0,0,1,16.09.45Z"/><path class="cls-1" d="M2.64,8.11a15.77,15.77,0,0,1,13.45,8A15.25,15.25,0,0,1,2.64,8.11Z"/><path class="cls-1" d="M2.64,23.6S7.13,16,16.09,16.07C16.09,16.07,11.58,23.63,2.64,23.6Z"/></svg>