<svg id="Layer_1" data-name="Layer 1" xmlns="http://www.w3.org/2000/svg" viewBox="0 0 2060 775.21"><defs><style>.cls-1,.cls-4{opacity:0.05;}.cls-2{fill:none;stroke:#231f20;stroke-miterlimit:10;stroke-width:3.11px;}.cls-3{fill:#231f20;}.cls-4{font-size:32.12px;font-family:OxtailOT-Medium, Oxtail OT;font-weight:500;}.cls-5{letter-spacing:-0.01em;}</style></defs><title>1Artboard 10</title><g class="cls-1"><path class="cls-2" d="M534.66,249.08s16.54-28.79,0-55.26C534.66,193.82,516.81,217.42,534.66,249.08Z"/><path class="cls-2" d="M582,220.58s-15-27.66-47.35-26.76C534.66,193.82,550.35,222.57,582,220.58Z"/><path class="cls-2" d="M582,165.89s-28.65-2.41-47.35,27.93C534.66,193.82,570.22,192.41,582,165.89Z"/><path class="cls-2" d="M534.66,138.07s17.35,27.54,0,55.75C534.66,193.82,516.57,168.85,534.66,138.07Z"/><path class="cls-2" d="M486.64,165.42s29.93-1.5,48,28.4A54.47,54.47,0,0,1,486.64,165.42Z"/><path class="cls-2" d="M486.64,220.68s16-27.25,48-26.86C534.66,193.82,518.56,220.8,486.64,220.68Z"/></g><g class="cls-1"><path class="cls-3" d="M654,540.84s16.54-28.79,0-55.26C654,485.58,636.14,509.18,654,540.84Z"/><path class="cls-3" d="M701.34,512.35s-15-27.66-47.35-26.77C654,485.58,669.68,514.33,701.34,512.35Z"/><path class="cls-3" d="M701.34,457.65s-28.65-2.41-47.35,27.93C654,485.58,689.55,484.18,701.34,457.65Z"/><path class="cls-3" d="M654,429.83s17.35,27.54,0,55.75C654,485.58,635.9,460.62,654,429.83Z"/><path class="cls-3" d="M606,457.19s29.93-1.5,48,28.39A54.47,54.47,0,0,1,606,457.19Z"/><path class="cls-3" d="M606,512.45s16-27.26,48-26.87C654,485.58,637.89,512.56,606,512.45Z"/></g><g class="cls-1"><path class="cls-3" d="M653.32,152.18s16.54-28.79,0-55.26C653.32,96.92,635.47,120.52,653.32,152.18Z"/><path class="cls-3" d="M700.68,123.68S685.7,96,653.32,96.92C653.32,96.92,669,125.67,700.68,123.68Z"/><path class="cls-3" d="M700.68,69S672,66.58,653.32,96.92C653.32,96.92,688.88,95.52,700.68,69Z"/><path class="cls-3" d="M653.32,41.17s17.36,27.54,0,55.75C653.32,96.92,635.23,72,653.32,41.17Z"/><path class="cls-3" d="M605.3,68.53s29.93-1.5,48,28.39A54.48,54.48,0,0,1,605.3,68.53Z"/><path class="cls-3" d="M605.3,123.79s16-27.26,48-26.87C653.32,96.92,637.23,123.9,605.3,123.79Z"/></g><g class="cls-1"><path class="cls-3" d="M653.66,346.51s16.54-28.79,0-55.26C653.66,291.25,635.81,314.85,653.66,346.51Z"/><path class="cls-3" d="M701,318s-15-27.65-47.35-26.76C653.66,291.25,669.35,320,701,318Z"/><path class="cls-3" d="M701,263.32s-28.65-2.41-47.35,27.93C653.66,291.25,689.22,289.85,701,263.32Z"/><path class="cls-3" d="M653.66,235.5s17.35,27.54,0,55.75C653.66,291.25,635.56,266.29,653.66,235.5Z"/><path class="cls-3" d="M605.63,262.86s29.93-1.5,48,28.39A54.49,54.49,0,0,1,605.63,262.86Z"/><path class="cls-3" d="M605.63,318.12s16-27.26,48-26.87C653.66,291.25,637.56,318.23,605.63,318.12Z"/></g><g class="cls-1"><path class="cls-2" d="M534.33,442.88s16.54-28.79,0-55.26C534.33,387.62,516.48,411.21,534.33,442.88Z"/><path class="cls-2" d="M581.68,414.38s-15-27.66-47.35-26.76C534.33,387.62,550,416.36,581.68,414.38Z"/><path class="cls-2" d="M581.68,359.68s-28.65-2.41-47.35,27.94C534.33,387.62,569.89,386.21,581.68,359.68Z"/><path class="cls-2" d="M534.33,331.86s17.35,27.54,0,55.76C534.33,387.62,516.23,362.65,534.33,331.86Z"/><path class="cls-2" d="M486.3,359.22s29.93-1.5,48,28.4A54.49,54.49,0,0,1,486.3,359.22Z"/><path class="cls-2" d="M486.3,414.48s16-27.26,48-26.86C534.33,387.62,518.23,414.59,486.3,414.48Z"/></g><text class="cls-4" transform="translate(512.06 106.32)"><tspan class="cls-5">D</tspan><tspan x="23.45" y="0">C</tspan></text><text class="cls-4" transform="translate(630.72 203.49)"><tspan class="cls-5">D</tspan><tspan x="23.45" y="0">C</tspan></text><text class="cls-4" transform="translate(512.06 300.12)"><tspan class="cls-5">D</tspan><tspan x="23.45" y="0">C</tspan></text><text class="cls-4" transform="translate(512.06 493.92)"><tspan class="cls-5">D</tspan><tspan x="23.45" y="0">C</tspan></text><text class="cls-4" transform="translate(630.56 397.82)"><tspan class="cls-5">D</tspan><tspan x="23.45" y="0">C</tspan></text><g class="cls-1"><path class="cls-2" d="M534.66,830.47s16.54-28.79,0-55.26C534.66,775.21,516.81,798.81,534.66,830.47Z"/><path class="cls-2" d="M582,802s-15-27.65-47.35-26.76C534.66,775.21,550.35,804,582,802Z"/><path class="cls-2" d="M582,747.28s-28.65-2.41-47.35,27.93C534.66,775.21,570.22,773.81,582,747.28Z"/><path class="cls-2" d="M534.66,719.46s17.35,27.54,0,55.75C534.66,775.21,516.57,750.25,534.66,719.46Z"/><path class="cls-2" d="M486.64,746.82s29.93-1.5,48,28.39A54.47,54.47,0,0,1,486.64,746.82Z"/><path class="cls-2" d="M486.64,802.08s16-27.26,48-26.87C534.66,775.21,518.56,802.19,486.64,802.08Z"/></g><g class="cls-1"><path class="cls-3" d="M653.32,733.57s16.54-28.79,0-55.26C653.32,678.31,635.47,701.91,653.32,733.57Z"/><path class="cls-3" d="M700.68,705.08s-15-27.66-47.36-26.77C653.32,678.31,669,707.06,700.68,705.08Z"/><path class="cls-3" d="M700.68,650.38S672,648,653.32,678.31C653.32,678.31,688.88,676.91,700.68,650.38Z"/><path class="cls-3" d="M653.32,622.56s17.36,27.54,0,55.75C653.32,678.31,635.23,653.35,653.32,622.56Z"/><path class="cls-3" d="M605.3,649.92s29.93-1.5,48,28.39A54.48,54.48,0,0,1,605.3,649.92Z"/><path class="cls-3" d="M605.3,705.18s16-27.26,48-26.87C653.32,678.31,637.23,705.29,605.3,705.18Z"/></g><g class="cls-1"><path class="cls-2" d="M534.33,636.67s16.54-28.79,0-55.26C534.33,581.41,516.48,605,534.33,636.67Z"/><path class="cls-2" d="M581.68,608.18s-15-27.66-47.35-26.77C534.33,581.41,550,610.16,581.68,608.18Z"/><path class="cls-2" d="M581.68,553.48s-28.65-2.41-47.35,27.93C534.33,581.41,569.89,580,581.68,553.48Z"/><path class="cls-2" d="M534.33,525.66s17.35,27.54,0,55.75C534.33,581.41,516.23,556.45,534.33,525.66Z"/><path class="cls-2" d="M486.3,553s29.93-1.5,48,28.39A54.49,54.49,0,0,1,486.3,553Z"/><path class="cls-2" d="M486.3,608.28s16-27.26,48-26.87C534.33,581.41,518.23,608.39,486.3,608.28Z"/></g><text class="cls-4" transform="translate(512.06 687.71)"><tspan class="cls-5">D</tspan><tspan x="23.45" y="0">C</tspan></text><text class="cls-4" transform="translate(630.72 784.88)"><tspan class="cls-5">D</tspan><tspan x="23.45" y="0">C</tspan></text><g class="cls-1"><path class="cls-2" d="M293.66,249.08s16.54-28.79,0-55.26C293.66,193.82,275.81,217.42,293.66,249.08Z"/><path class="cls-2" d="M341,220.58s-15-27.66-47.36-26.76C293.66,193.82,309.36,222.57,341,220.58Z"/><path class="cls-2" d="M341,165.89s-28.66-2.41-47.36,27.93C293.66,193.82,329.22,192.41,341,165.89Z"/><path class="cls-2" d="M293.66,138.07s17.36,27.54,0,55.75C293.66,193.82,275.57,168.85,293.66,138.07Z"/><path class="cls-2" d="M245.64,165.42s29.93-1.5,48,28.4A54.48,54.48,0,0,1,245.64,165.42Z"/><path class="cls-2" d="M245.64,220.68s16-27.25,48-26.86C293.66,193.82,277.56,220.8,245.64,220.68Z"/></g><g class="cls-1"><path class="cls-2" d="M293.33,442.88s16.54-28.79,0-55.26C293.33,387.62,275.48,411.21,293.33,442.88Z"/><path class="cls-2" d="M340.68,414.38s-15-27.66-47.35-26.76C293.33,387.62,309,416.36,340.68,414.38Z"/><path class="cls-2" d="M340.68,359.68s-28.65-2.41-47.35,27.94C293.33,387.62,328.89,386.21,340.68,359.68Z"/><path class="cls-2" d="M293.33,331.86s17.35,27.54,0,55.76C293.33,387.62,275.24,362.65,293.33,331.86Z"/><path class="cls-2" d="M245.31,359.22s29.93-1.5,48,28.4A54.47,54.47,0,0,1,245.31,359.22Z"/><path class="cls-2" d="M245.31,414.48s16-27.26,48-26.86C293.33,387.62,277.23,414.59,245.31,414.48Z"/></g><text class="cls-4" transform="translate(271.06 106.32)"><tspan class="cls-5">D</tspan><tspan x="23.45" y="0">C</tspan></text><text class="cls-4" transform="translate(271.06 300.12)"><tspan class="cls-5">D</tspan><tspan x="23.45" y="0">C</tspan></text><text class="cls-4" transform="translate(271.06 493.92)"><tspan class="cls-5">D</tspan><tspan x="23.45" y="0">C</tspan></text><g class="cls-1"><path class="cls-2" d="M293.66,830.47s16.54-28.79,0-55.26C293.66,775.21,275.81,798.81,293.66,830.47Z"/><path class="cls-2" d="M341,802s-15-27.65-47.36-26.76C293.66,775.21,309.36,804,341,802Z"/><path class="cls-2" d="M341,747.28s-28.66-2.41-47.36,27.93C293.66,775.21,329.22,773.81,341,747.28Z"/><path class="cls-2" d="M293.66,719.46s17.36,27.54,0,55.75C293.66,775.21,275.57,750.25,293.66,719.46Z"/><path class="cls-2" d="M245.64,746.82s29.93-1.5,48,28.39A54.48,54.48,0,0,1,245.64,746.82Z"/><path class="cls-2" d="M245.64,802.08s16-27.26,48-26.87C293.66,775.21,277.56,802.19,245.64,802.08Z"/></g><g class="cls-1"><path class="cls-2" d="M293.33,636.67s16.54-28.79,0-55.26C293.33,581.41,275.48,605,293.33,636.67Z"/><path class="cls-2" d="M340.68,608.18s-15-27.66-47.35-26.77C293.33,581.41,309,610.16,340.68,608.18Z"/><path class="cls-2" d="M340.68,553.48s-28.65-2.41-47.35,27.93C293.33,581.41,328.89,580,340.68,553.48Z"/><path class="cls-2" d="M293.33,525.66s17.35,27.54,0,55.75C293.33,581.41,275.24,556.45,293.33,525.66Z"/><path class="cls-2" d="M245.31,553s29.93-1.5,48,28.39A54.47,54.47,0,0,1,245.31,553Z"/><path class="cls-2" d="M245.31,608.28s16-27.26,48-26.87C293.33,581.41,277.23,608.39,245.31,608.28Z"/></g><text class="cls-4" transform="translate(271.06 687.71)"><tspan class="cls-5">D</tspan><tspan x="23.45" y="0">C</tspan></text><g class="cls-1"><path class="cls-2" d="M49.66,249.08s16.54-28.79,0-55.26C49.66,193.82,31.81,217.42,49.66,249.08Z"/><path class="cls-2" d="M97,220.58s-15-27.66-47.36-26.76C49.66,193.82,65.36,222.57,97,220.58Z"/><path class="cls-2" d="M97,165.89s-28.66-2.41-47.36,27.93C49.66,193.82,85.22,192.41,97,165.89Z"/><path class="cls-2" d="M49.66,138.07s17.36,27.54,0,55.75C49.66,193.82,31.57,168.85,49.66,138.07Z"/><path class="cls-2" d="M1.64,165.42s29.93-1.5,48,28.4A54.48,54.48,0,0,1,1.64,165.42Z"/><path class="cls-2" d="M1.64,220.68s16-27.25,48-26.86C49.66,193.82,33.57,220.8,1.64,220.68Z"/></g><g class="cls-1"><path class="cls-2" d="M49.33,442.88s16.54-28.79,0-55.26C49.33,387.62,31.48,411.21,49.33,442.88Z"/><path class="cls-2" d="M96.68,414.38s-15-27.66-47.35-26.76C49.33,387.62,65,416.36,96.68,414.38Z"/><path class="cls-2" d="M96.68,359.68S68,357.27,49.33,387.62C49.33,387.62,84.89,386.21,96.68,359.68Z"/><path class="cls-2" d="M49.33,331.86s17.35,27.54,0,55.76C49.33,387.62,31.24,362.65,49.33,331.86Z"/><path class="cls-2" d="M1.31,359.22s29.93-1.5,48,28.4A54.47,54.47,0,0,1,1.31,359.22Z"/><path class="cls-2" d="M1.31,414.48s16-27.26,48-26.86C49.33,387.62,33.23,414.59,1.31,414.48Z"/></g><text class="cls-4" transform="translate(27.06 106.32)"><tspan class="cls-5">D</tspan><tspan x="23.45" y="0">C</tspan></text><text class="cls-4" transform="translate(27.06 300.12)"><tspan class="cls-5">D</tspan><tspan x="23.45" y="0">C</tspan></text><text class="cls-4" transform="translate(27.06 493.92)"><tspan class="cls-5">D</tspan><tspan x="23.45" y="0">C</tspan></text><g class="cls-1"><path class="cls-2" d="M49.66,830.47s16.54-28.79,0-55.26C49.66,775.21,31.81,798.81,49.66,830.47Z"/><path class="cls-2" d="M97,802s-15-27.65-47.36-26.76C49.66,775.21,65.36,804,97,802Z"/><path class="cls-2" d="M97,747.28s-28.66-2.41-47.36,27.93C49.66,775.21,85.22,773.81,97,747.28Z"/><path class="cls-2" d="M49.66,719.46S67,747,49.66,775.21C49.66,775.21,31.57,750.25,49.66,719.46Z"/><path class="cls-2" d="M1.64,746.82s29.93-1.5,48,28.39A54.48,54.48,0,0,1,1.64,746.82Z"/><path class="cls-2" d="M1.64,802.08s16-27.26,48-26.87C49.66,775.21,33.57,802.19,1.64,802.08Z"/></g><g class="cls-1"><path class="cls-2" d="M49.33,636.67s16.54-28.79,0-55.26C49.33,581.41,31.48,605,49.33,636.67Z"/><path class="cls-2" d="M96.68,608.18s-15-27.66-47.35-26.77C49.33,581.41,65,610.16,96.68,608.18Z"/><path class="cls-2" d="M96.68,553.48S68,551.07,49.33,581.41C49.33,581.41,84.89,580,96.68,553.48Z"/><path class="cls-2" d="M49.33,525.66s17.35,27.54,0,55.75C49.33,581.41,31.24,556.45,49.33,525.66Z"/><path class="cls-2" d="M1.31,553s29.93-1.5,48,28.39A54.47,54.47,0,0,1,1.31,553Z"/><path class="cls-2" d="M1.31,608.28s16-27.26,48-26.87C49.33,581.41,33.23,608.39,1.31,608.28Z"/></g><text class="cls-4" transform="translate(27.06 687.71)"><tspan class="cls-5">D</tspan><tspan x="23.45" y="0">C</tspan></text><g class="cls-1"><path class="cls-2" d="M774,249.08s16.54-28.79,0-55.26C774,193.82,756.14,217.42,774,249.08Z"/><path class="cls-2" d="M821.34,220.58s-15-27.66-47.35-26.76C774,193.82,789.68,222.57,821.34,220.58Z"/><path class="cls-2" d="M821.34,165.89s-28.65-2.41-47.35,27.93C774,193.82,809.55,192.41,821.34,165.89Z"/><path class="cls-2" d="M774,138.07s17.35,27.54,0,55.75C774,193.82,755.89,168.85,774,138.07Z"/><path class="cls-2" d="M726,165.42s29.92-1.5,48,28.4A54.47,54.47,0,0,1,726,165.42Z"/><path class="cls-2" d="M726,220.68s16-27.25,48-26.86C774,193.82,757.89,220.8,726,220.68Z"/></g><g class="cls-1"><path class="cls-2" d="M773.65,442.88s16.55-28.79,0-55.26C773.65,387.62,755.81,411.21,773.65,442.88Z"/><path class="cls-2" d="M821,414.38s-15-27.66-47.36-26.76C773.65,387.62,789.35,416.36,821,414.38Z"/><path class="cls-2" d="M821,359.68s-28.66-2.41-47.36,27.94C773.65,387.62,809.22,386.21,821,359.68Z"/><path class="cls-2" d="M773.65,331.86s17.36,27.54,0,55.76C773.65,387.62,755.56,362.65,773.65,331.86Z"/><path class="cls-2" d="M725.63,359.22s29.93-1.5,48,28.4A54.48,54.48,0,0,1,725.63,359.22Z"/><path class="cls-2" d="M725.63,414.48s16-27.26,48-26.86C773.65,387.62,757.56,414.59,725.63,414.48Z"/></g><text class="cls-4" transform="translate(751.39 106.32)"><tspan class="cls-5">D</tspan><tspan x="23.45" y="0">C</tspan></text><text class="cls-4" transform="translate(751.39 300.12)"><tspan class="cls-5">D</tspan><tspan x="23.45" y="0">C</tspan></text><text class="cls-4" transform="translate(751.39 493.92)"><tspan class="cls-5">D</tspan><tspan x="23.45" y="0">C</tspan></text><g class="cls-1"><path class="cls-2" d="M774,830.47s16.54-28.79,0-55.26C774,775.21,756.14,798.81,774,830.47Z"/><path class="cls-2" d="M821.34,802s-15-27.65-47.35-26.76C774,775.21,789.68,804,821.34,802Z"/><path class="cls-2" d="M821.34,747.28s-28.65-2.41-47.35,27.93C774,775.21,809.55,773.81,821.34,747.28Z"/><path class="cls-2" d="M774,719.46s17.35,27.54,0,55.75C774,775.21,755.89,750.25,774,719.46Z"/><path class="cls-2" d="M726,746.82s29.92-1.5,48,28.39A54.47,54.47,0,0,1,726,746.82Z"/><path class="cls-2" d="M726,802.08s16-27.26,48-26.87C774,775.21,757.89,802.19,726,802.08Z"/></g><g class="cls-1"><path class="cls-2" d="M773.65,636.67s16.55-28.79,0-55.26C773.65,581.41,755.81,605,773.65,636.67Z"/><path class="cls-2" d="M821,608.18s-15-27.66-47.36-26.77C773.65,581.41,789.35,610.16,821,608.18Z"/><path class="cls-2" d="M821,553.48s-28.66-2.41-47.36,27.93C773.65,581.41,809.22,580,821,553.48Z"/><path class="cls-2" d="M773.65,525.66s17.36,27.54,0,55.75C773.65,581.41,755.56,556.45,773.65,525.66Z"/><path class="cls-2" d="M725.63,553s29.93-1.5,48,28.39A54.48,54.48,0,0,1,725.63,553Z"/><path class="cls-2" d="M725.63,608.28s16-27.26,48-26.87C773.65,581.41,757.56,608.39,725.63,608.28Z"/></g><text class="cls-4" transform="translate(751.39 687.71)"><tspan class="cls-5">D</tspan><tspan x="23.45" y="0">C</tspan></text><g class="cls-1"><path class="cls-2" d="M1016.65,249.08s16.54-28.79,0-55.26C1016.65,193.82,998.8,217.42,1016.65,249.08Z"/><path class="cls-2" d="M1064,220.58s-15-27.66-47.36-26.76C1016.65,193.82,1032.35,222.57,1064,220.58Z"/><path class="cls-2" d="M1064,165.89s-28.66-2.41-47.36,27.93C1016.65,193.82,1052.21,192.41,1064,165.89Z"/><path class="cls-2" d="M1016.65,138.07s17.36,27.54,0,55.75C1016.65,193.82,998.56,168.85,1016.65,138.07Z"/><path class="cls-2" d="M968.63,165.42s29.93-1.5,48,28.4A54.48,54.48,0,0,1,968.63,165.42Z"/><path class="cls-2" d="M968.63,220.68s16-27.25,48-26.86C1016.65,193.82,1000.56,220.8,968.63,220.68Z"/></g><g class="cls-1"><path class="cls-2" d="M1016.32,442.88s16.54-28.79,0-55.26C1016.32,387.62,998.47,411.21,1016.32,442.88Z"/><path class="cls-2" d="M1063.67,414.38s-15-27.66-47.35-26.76C1016.32,387.62,1032,416.36,1063.67,414.38Z"/><path class="cls-2" d="M1063.67,359.68s-28.65-2.41-47.35,27.94C1016.32,387.62,1051.88,386.21,1063.67,359.68Z"/><path class="cls-2" d="M1016.32,331.86s17.35,27.54,0,55.76C1016.32,387.62,998.23,362.65,1016.32,331.86Z"/><path class="cls-2" d="M968.3,359.22s29.93-1.5,48,28.4A54.47,54.47,0,0,1,968.3,359.22Z"/><path class="cls-2" d="M968.3,414.48s16-27.26,48-26.86C1016.32,387.62,1000.22,414.59,968.3,414.48Z"/></g><text class="cls-4" transform="translate(994.06 106.32)"><tspan class="cls-5">D</tspan><tspan x="23.45" y="0">C</tspan></text><text class="cls-4" transform="translate(994.06 300.12)"><tspan class="cls-5">D</tspan><tspan x="23.45" y="0">C</tspan></text><text class="cls-4" transform="translate(994.06 493.92)"><tspan class="cls-5">D</tspan><tspan x="23.45" y="0">C</tspan></text><g class="cls-1"><path class="cls-2" d="M1016.65,830.47s16.54-28.79,0-55.26C1016.65,775.21,998.8,798.81,1016.65,830.47Z"/><path class="cls-2" d="M1064,802s-15-27.65-47.36-26.76C1016.65,775.21,1032.35,804,1064,802Z"/><path class="cls-2" d="M1064,747.28s-28.66-2.41-47.36,27.93C1016.65,775.21,1052.21,773.81,1064,747.28Z"/><path class="cls-2" d="M1016.65,719.46s17.36,27.54,0,55.75C1016.65,775.21,998.56,750.25,1016.65,719.46Z"/><path class="cls-2" d="M968.63,746.82s29.93-1.5,48,28.39A54.48,54.48,0,0,1,968.63,746.82Z"/><path class="cls-2" d="M968.63,802.08s16-27.26,48-26.87C1016.65,775.21,1000.56,802.19,968.63,802.08Z"/></g><g class="cls-1"><path class="cls-2" d="M1016.32,636.67s16.54-28.79,0-55.26C1016.32,581.41,998.47,605,1016.32,636.67Z"/><path class="cls-2" d="M1063.67,608.18s-15-27.66-47.35-26.77C1016.32,581.41,1032,610.16,1063.67,608.18Z"/><path class="cls-2" d="M1063.67,553.48s-28.65-2.41-47.35,27.93C1016.32,581.41,1051.88,580,1063.67,553.48Z"/><path class="cls-2" d="M1016.32,525.66s17.35,27.54,0,55.75C1016.32,581.41,998.23,556.45,1016.32,525.66Z"/><path class="cls-2" d="M968.3,553s29.93-1.5,48,28.39A54.47,54.47,0,0,1,968.3,553Z"/><path class="cls-2" d="M968.3,608.28s16-27.26,48-26.87C1016.32,581.41,1000.22,608.39,968.3,608.28Z"/></g><text class="cls-4" transform="translate(994.06 687.71)"><tspan class="cls-5">D</tspan><tspan x="23.45" y="0">C</tspan></text><g class="cls-1"><path class="cls-2" d="M1263.32,249.08s16.54-28.79,0-55.26C1263.32,193.82,1245.47,217.42,1263.32,249.08Z"/><path class="cls-2" d="M1310.68,220.58s-15-27.66-47.36-26.76C1263.32,193.82,1279,222.57,1310.68,220.58Z"/><path class="cls-2" d="M1310.68,165.89s-28.66-2.41-47.36,27.93C1263.32,193.82,1298.88,192.41,1310.68,165.89Z"/><path class="cls-2" d="M1263.32,138.07s17.35,27.54,0,55.75C1263.32,193.82,1245.23,168.85,1263.32,138.07Z"/><path class="cls-2" d="M1215.3,165.42s29.93-1.5,48,28.4A54.47,54.47,0,0,1,1215.3,165.42Z"/><path class="cls-2" d="M1215.3,220.68s16-27.25,48-26.86C1263.32,193.82,1247.22,220.8,1215.3,220.68Z"/></g><g class="cls-1"><path class="cls-2" d="M1263,442.88s16.54-28.79,0-55.26C1263,387.62,1245.14,411.21,1263,442.88Z"/><path class="cls-2" d="M1310.34,414.38s-15-27.66-47.35-26.76C1263,387.62,1278.68,416.36,1310.34,414.38Z"/><path class="cls-2" d="M1310.34,359.68s-28.65-2.41-47.35,27.94C1263,387.62,1298.55,386.21,1310.34,359.68Z"/><path class="cls-2" d="M1263,331.86s17.35,27.54,0,55.76C1263,387.62,1244.89,362.65,1263,331.86Z"/><path class="cls-2" d="M1215,359.22s29.92-1.5,48,28.4A54.47,54.47,0,0,1,1215,359.22Z"/><path class="cls-2" d="M1215,414.48s16-27.26,48-26.86C1263,387.62,1246.89,414.59,1215,414.48Z"/></g><text class="cls-4" transform="translate(1240.72 106.32)"><tspan class="cls-5">D</tspan><tspan x="23.45" y="0">C</tspan></text><text class="cls-4" transform="translate(1240.72 300.12)"><tspan class="cls-5">D</tspan><tspan x="23.45" y="0">C</tspan></text><text class="cls-4" transform="translate(1240.72 493.92)"><tspan class="cls-5">D</tspan><tspan x="23.45" y="0">C</tspan></text><g class="cls-1"><path class="cls-2" d="M1263.32,830.47s16.54-28.79,0-55.26C1263.32,775.21,1245.47,798.81,1263.32,830.47Z"/><path class="cls-2" d="M1310.68,802s-15-27.65-47.36-26.76C1263.32,775.21,1279,804,1310.68,802Z"/><path class="cls-2" d="M1310.68,747.28s-28.66-2.41-47.36,27.93C1263.32,775.21,1298.88,773.81,1310.68,747.28Z"/><path class="cls-2" d="M1263.32,719.46s17.35,27.54,0,55.75C1263.32,775.21,1245.23,750.25,1263.32,719.46Z"/><path class="cls-2" d="M1215.3,746.82s29.93-1.5,48,28.39A54.47,54.47,0,0,1,1215.3,746.82Z"/><path class="cls-2" d="M1215.3,802.08s16-27.26,48-26.87C1263.32,775.21,1247.22,802.19,1215.3,802.08Z"/></g><g class="cls-1"><path class="cls-2" d="M1263,636.67s16.54-28.79,0-55.26C1263,581.41,1245.14,605,1263,636.67Z"/><path class="cls-2" d="M1310.34,608.18s-15-27.66-47.35-26.77C1263,581.41,1278.68,610.16,1310.34,608.18Z"/><path class="cls-2" d="M1310.34,553.48s-28.65-2.41-47.35,27.93C1263,581.41,1298.55,580,1310.34,553.48Z"/><path class="cls-2" d="M1263,525.66s17.35,27.54,0,55.75C1263,581.41,1244.89,556.45,1263,525.66Z"/><path class="cls-2" d="M1215,553s29.92-1.5,48,28.39A54.47,54.47,0,0,1,1215,553Z"/><path class="cls-2" d="M1215,608.28s16-27.26,48-26.87C1263,581.41,1246.89,608.39,1215,608.28Z"/></g><text class="cls-4" transform="translate(1240.72 687.71)"><tspan class="cls-5">D</tspan><tspan x="23.45" y="0">C</tspan></text><g class="cls-1"><path class="cls-2" d="M1514,249.08s16.54-28.79,0-55.26C1514,193.82,1496.14,217.42,1514,249.08Z"/><path class="cls-2" d="M1561.35,220.58s-15-27.66-47.36-26.76C1514,193.82,1529.69,222.57,1561.35,220.58Z"/><path class="cls-2" d="M1561.35,165.89s-28.66-2.41-47.36,27.93C1514,193.82,1549.55,192.41,1561.35,165.89Z"/><path class="cls-2" d="M1514,138.07s17.36,27.54,0,55.75C1514,193.82,1495.9,168.85,1514,138.07Z"/><path class="cls-2" d="M1466,165.42s29.93-1.5,48,28.4A54.48,54.48,0,0,1,1466,165.42Z"/><path class="cls-2" d="M1466,220.68s16-27.25,48-26.86C1514,193.82,1497.89,220.8,1466,220.68Z"/></g><g class="cls-1"><path class="cls-2" d="M1513.66,442.88s16.54-28.79,0-55.26C1513.66,387.62,1495.81,411.21,1513.66,442.88Z"/><path class="cls-2" d="M1561,414.38s-15-27.66-47.35-26.76C1513.66,387.62,1529.35,416.36,1561,414.38Z"/><path class="cls-2" d="M1561,359.68s-28.65-2.41-47.35,27.94C1513.66,387.62,1549.22,386.21,1561,359.68Z"/><path class="cls-2" d="M1513.66,331.86s17.35,27.54,0,55.76C1513.66,387.62,1495.57,362.65,1513.66,331.86Z"/><path class="cls-2" d="M1465.64,359.22s29.93-1.5,48,28.4A54.47,54.47,0,0,1,1465.64,359.22Z"/><path class="cls-2" d="M1465.64,414.48s16-27.26,48-26.86C1513.66,387.62,1497.56,414.59,1465.64,414.48Z"/></g><text class="cls-4" transform="translate(1491.39 106.32)"><tspan class="cls-5">D</tspan><tspan x="23.45" y="0">C</tspan></text><text class="cls-4" transform="translate(1491.39 300.12)"><tspan class="cls-5">D</tspan><tspan x="23.45" y="0">C</tspan></text><text class="cls-4" transform="translate(1491.39 493.92)"><tspan class="cls-5">D</tspan><tspan x="23.45" y="0">C</tspan></text><g class="cls-1"><path class="cls-2" d="M1514,830.47s16.54-28.79,0-55.26C1514,775.21,1496.14,798.81,1514,830.47Z"/><path class="cls-2" d="M1561.35,802s-15-27.65-47.36-26.76C1514,775.21,1529.69,804,1561.35,802Z"/><path class="cls-2" d="M1561.35,747.28s-28.66-2.41-47.36,27.93C1514,775.21,1549.55,773.81,1561.35,747.28Z"/><path class="cls-2" d="M1514,719.46s17.36,27.54,0,55.75C1514,775.21,1495.9,750.25,1514,719.46Z"/><path class="cls-2" d="M1466,746.82s29.93-1.5,48,28.39A54.48,54.48,0,0,1,1466,746.82Z"/><path class="cls-2" d="M1466,802.08s16-27.26,48-26.87C1514,775.21,1497.89,802.19,1466,802.08Z"/></g><g class="cls-1"><path class="cls-2" d="M1513.66,636.67s16.54-28.79,0-55.26C1513.66,581.41,1495.81,605,1513.66,636.67Z"/><path class="cls-2" d="M1561,608.18s-15-27.66-47.35-26.77C1513.66,581.41,1529.35,610.16,1561,608.18Z"/><path class="cls-2" d="M1561,553.48s-28.65-2.41-47.35,27.93C1513.66,581.41,1549.22,580,1561,553.48Z"/><path class="cls-2" d="M1513.66,525.66s17.35,27.54,0,55.75C1513.66,581.41,1495.57,556.45,1513.66,525.66Z"/><path class="cls-2" d="M1465.64,553s29.93-1.5,48,28.39A54.47,54.47,0,0,1,1465.64,553Z"/><path class="cls-2" d="M1465.64,608.28s16-27.26,48-26.87C1513.66,581.41,1497.56,608.39,1465.64,608.28Z"/></g><text class="cls-4" transform="translate(1491.39 687.71)"><tspan class="cls-5">D</tspan><tspan x="23.45" y="0">C</tspan></text><g class="cls-1"><path class="cls-2" d="M1768.67,249.08s16.54-28.79,0-55.26C1768.67,193.82,1750.82,217.42,1768.67,249.08Z"/><path class="cls-2" d="M1816,220.58s-15-27.66-47.35-26.76C1768.67,193.82,1784.36,222.57,1816,220.58Z"/><path class="cls-2" d="M1816,165.89s-28.65-2.41-47.35,27.93C1768.67,193.82,1804.23,192.41,1816,165.89Z"/><path class="cls-2" d="M1768.67,138.07s17.35,27.54,0,55.75C1768.67,193.82,1750.57,168.85,1768.67,138.07Z"/><path class="cls-2" d="M1720.64,165.42s29.93-1.5,48,28.4A54.49,54.49,0,0,1,1720.64,165.42Z"/><path class="cls-2" d="M1720.64,220.68s16-27.25,48-26.86C1768.67,193.82,1752.57,220.8,1720.64,220.68Z"/></g><g class="cls-1"><path class="cls-2" d="M1768.33,442.88s16.54-28.79,0-55.26C1768.33,387.62,1750.48,411.21,1768.33,442.88Z"/><path class="cls-2" d="M1815.69,414.38s-15-27.66-47.36-26.76C1768.33,387.62,1784,416.36,1815.69,414.38Z"/><path class="cls-2" d="M1815.69,359.68s-28.66-2.41-47.36,27.94C1768.33,387.62,1803.89,386.21,1815.69,359.68Z"/><path class="cls-2" d="M1768.33,331.86s17.36,27.54,0,55.76C1768.33,387.62,1750.24,362.65,1768.33,331.86Z"/><path class="cls-2" d="M1720.31,359.22s29.93-1.5,48,28.4A54.48,54.48,0,0,1,1720.31,359.22Z"/><path class="cls-2" d="M1720.31,414.48s16-27.26,48-26.86C1768.33,387.62,1752.24,414.59,1720.31,414.48Z"/></g><text class="cls-4" transform="translate(1746.07 106.32)"><tspan class="cls-5">D</tspan><tspan x="23.45" y="0">C</tspan></text><text class="cls-4" transform="translate(1746.07 300.12)"><tspan class="cls-5">D</tspan><tspan x="23.45" y="0">C</tspan></text><text class="cls-4" transform="translate(1746.07 493.92)"><tspan class="cls-5">D</tspan><tspan x="23.45" y="0">C</tspan></text><g class="cls-1"><path class="cls-2" d="M1768.67,830.47s16.54-28.79,0-55.26C1768.67,775.21,1750.82,798.81,1768.67,830.47Z"/><path class="cls-2" d="M1816,802s-15-27.65-47.35-26.76C1768.67,775.21,1784.36,804,1816,802Z"/><path class="cls-2" d="M1816,747.28s-28.65-2.41-47.35,27.93C1768.67,775.21,1804.23,773.81,1816,747.28Z"/><path class="cls-2" d="M1768.67,719.46s17.35,27.54,0,55.75C1768.67,775.21,1750.57,750.25,1768.67,719.46Z"/><path class="cls-2" d="M1720.64,746.82s29.93-1.5,48,28.39A54.49,54.49,0,0,1,1720.64,746.82Z"/><path class="cls-2" d="M1720.64,802.08s16-27.26,48-26.87C1768.67,775.21,1752.57,802.19,1720.64,802.08Z"/></g><g class="cls-1"><path class="cls-2" d="M1768.33,636.67s16.54-28.79,0-55.26C1768.33,581.41,1750.48,605,1768.33,636.67Z"/><path class="cls-2" d="M1815.69,608.18s-15-27.66-47.36-26.77C1768.33,581.41,1784,610.16,1815.69,608.18Z"/><path class="cls-2" d="M1815.69,553.48s-28.66-2.41-47.36,27.93C1768.33,581.41,1803.89,580,1815.69,553.48Z"/><path class="cls-2" d="M1768.33,525.66s17.36,27.54,0,55.75C1768.33,581.41,1750.24,556.45,1768.33,525.66Z"/><path class="cls-2" d="M1720.31,553s29.93-1.5,48,28.39A54.48,54.48,0,0,1,1720.31,553Z"/><path class="cls-2" d="M1720.31,608.28s16-27.26,48-26.87C1768.33,581.41,1752.24,608.39,1720.31,608.28Z"/></g><text class="cls-4" transform="translate(1746.07 687.71)"><tspan class="cls-5">D</tspan><tspan x="23.45" y="0">C</tspan></text><g class="cls-1"><path class="cls-2" d="M2011.34,249.08s16.54-28.79,0-55.26C2011.34,193.82,1993.49,217.42,2011.34,249.08Z"/><path class="cls-2" d="M2058.69,220.58s-15-27.66-47.35-26.76C2011.34,193.82,2027,222.57,2058.69,220.58Z"/><path class="cls-2" d="M2058.69,165.89s-28.65-2.41-47.35,27.93C2011.34,193.82,2046.9,192.41,2058.69,165.89Z"/><path class="cls-2" d="M2011.34,138.07s17.35,27.54,0,55.75C2011.34,193.82,1993.24,168.85,2011.34,138.07Z"/><path class="cls-2" d="M1963.32,165.42s29.92-1.5,48,28.4A54.47,54.47,0,0,1,1963.32,165.42Z"/><path class="cls-2" d="M1963.32,220.68s16-27.25,48-26.86C2011.34,193.82,1995.24,220.8,1963.32,220.68Z"/></g><g class="cls-1"><path class="cls-2" d="M2011,442.88s16.55-28.79,0-55.26C2011,387.62,1993.16,411.21,2011,442.88Z"/><path class="cls-2" d="M2058.36,414.38s-15-27.66-47.36-26.76C2011,387.62,2026.7,416.36,2058.36,414.38Z"/><path class="cls-2" d="M2058.36,359.68s-28.66-2.41-47.36,27.94C2011,387.62,2046.56,386.21,2058.36,359.68Z"/><path class="cls-2" d="M2011,331.86s17.36,27.54,0,55.76C2011,387.62,1992.91,362.65,2011,331.86Z"/><path class="cls-2" d="M1963,359.22s29.93-1.5,48,28.4A54.48,54.48,0,0,1,1963,359.22Z"/><path class="cls-2" d="M1963,414.48s16-27.26,48-26.86C2011,387.62,1994.91,414.59,1963,414.48Z"/></g><text class="cls-4" transform="translate(1988.74 106.32)"><tspan class="cls-5">D</tspan><tspan x="23.45" y="0">C</tspan></text><text class="cls-4" transform="translate(1988.74 300.12)"><tspan class="cls-5">D</tspan><tspan x="23.45" y="0">C</tspan></text><text class="cls-4" transform="translate(1988.74 493.92)"><tspan class="cls-5">D</tspan><tspan x="23.45" y="0">C</tspan></text><g class="cls-1"><path class="cls-2" d="M2011.34,830.47s16.54-28.79,0-55.26C2011.34,775.21,1993.49,798.81,2011.34,830.47Z"/><path class="cls-2" d="M2058.69,802s-15-27.65-47.35-26.76C2011.34,775.21,2027,804,2058.69,802Z"/><path class="cls-2" d="M2058.69,747.28s-28.65-2.41-47.35,27.93C2011.34,775.21,2046.9,773.81,2058.69,747.28Z"/><path class="cls-2" d="M2011.34,719.46s17.35,27.54,0,55.75C2011.34,775.21,1993.24,750.25,2011.34,719.46Z"/><path class="cls-2" d="M1963.32,746.82s29.92-1.5,48,28.39A54.47,54.47,0,0,1,1963.32,746.82Z"/><path class="cls-2" d="M1963.32,802.08s16-27.26,48-26.87C2011.34,775.21,1995.24,802.19,1963.32,802.08Z"/></g><g class="cls-1"><path class="cls-2" d="M2011,636.67s16.55-28.79,0-55.26C2011,581.41,1993.16,605,2011,636.67Z"/><path class="cls-2" d="M2058.36,608.18s-15-27.66-47.36-26.77C2011,581.41,2026.7,610.16,2058.36,608.18Z"/><path class="cls-2" d="M2058.36,553.48s-28.66-2.41-47.36,27.93C2011,581.41,2046.56,580,2058.36,553.48Z"/><path class="cls-2" d="M2011,525.66s17.36,27.54,0,55.75C2011,581.41,1992.91,556.45,2011,525.66Z"/><path class="cls-2" d="M1963,553s29.93-1.5,48,28.39A54.48,54.48,0,0,1,1963,553Z"/><path class="cls-2" d="M1963,608.28s16-27.26,48-26.87C2011,581.41,1994.91,608.39,1963,608.28Z"/></g><text class="cls-4" transform="translate(1988.74 687.71)"><tspan class="cls-5">D</tspan><tspan x="23.45" y="0">C</tspan></text><text class="cls-4" transform="translate(630.39 591.04)"><tspan class="cls-5">D</tspan><tspan x="23.45" y="0">C</tspan></text><g class="cls-1"><path class="cls-3" d="M414.66,540.84s16.54-28.79,0-55.26C414.66,485.58,396.81,509.18,414.66,540.84Z"/><path class="cls-3" d="M462,512.35s-15-27.66-47.36-26.77C414.66,485.58,430.36,514.33,462,512.35Z"/><path class="cls-3" d="M462,457.65s-28.66-2.41-47.36,27.93C414.66,485.58,450.22,484.18,462,457.65Z"/><path class="cls-3" d="M414.66,429.83s17.35,27.54,0,55.75C414.66,485.58,396.57,460.62,414.66,429.83Z"/><path class="cls-3" d="M366.64,457.19s29.93-1.5,48,28.39A54.47,54.47,0,0,1,366.64,457.19Z"/><path class="cls-3" d="M366.64,512.45s16-27.26,48-26.87C414.66,485.58,398.56,512.56,366.64,512.45Z"/></g><g class="cls-1"><path class="cls-3" d="M414,152.18s16.55-28.79,0-55.26C414,96.92,396.15,120.52,414,152.18Z"/><path class="cls-3" d="M461.35,123.68S446.37,96,414,96.92C414,96.92,429.69,125.67,461.35,123.68Z"/><path class="cls-3" d="M461.35,69S432.69,66.58,414,96.92C414,96.92,449.55,95.52,461.35,69Z"/><path class="cls-3" d="M414,41.17s17.36,27.54,0,55.75C414,96.92,395.9,72,414,41.17Z"/><path class="cls-3" d="M366,68.53S395.9,67,414,96.92A54.48,54.48,0,0,1,366,68.53Z"/><path class="cls-3" d="M366,123.79s16-27.26,48-26.87C414,96.92,397.9,123.9,366,123.79Z"/></g><g class="cls-1"><path class="cls-3" d="M414.33,346.51s16.54-28.79,0-55.26C414.33,291.25,396.48,314.85,414.33,346.51Z"/><path class="cls-3" d="M461.68,318s-15-27.65-47.35-26.76C414.33,291.25,430,320,461.68,318Z"/><path class="cls-3" d="M461.68,263.32s-28.65-2.41-47.35,27.93C414.33,291.25,449.89,289.85,461.68,263.32Z"/><path class="cls-3" d="M414.33,235.5s17.35,27.54,0,55.75C414.33,291.25,396.23,266.29,414.33,235.5Z"/><path class="cls-3" d="M366.31,262.86s29.92-1.5,48,28.39A54.47,54.47,0,0,1,366.31,262.86Z"/><path class="cls-3" d="M366.31,318.12s16-27.26,48-26.87C414.33,291.25,398.23,318.23,366.31,318.12Z"/></g><text class="cls-4" transform="translate(391.4 203.49)"><tspan class="cls-5">D</tspan><tspan x="23.45" y="0">C</tspan></text><text class="cls-4" transform="translate(391.23 397.82)"><tspan class="cls-5">D</tspan><tspan x="23.45" y="0">C</tspan></text><g class="cls-1"><path class="cls-3" d="M414,733.57s16.55-28.79,0-55.26C414,678.31,396.15,701.91,414,733.57Z"/><path class="cls-3" d="M461.35,705.08s-15-27.66-47.36-26.77C414,678.31,429.69,707.06,461.35,705.08Z"/><path class="cls-3" d="M461.35,650.38S432.69,648,414,678.31C414,678.31,449.55,676.91,461.35,650.38Z"/><path class="cls-3" d="M414,622.56s17.36,27.54,0,55.75C414,678.31,395.9,653.35,414,622.56Z"/><path class="cls-3" d="M366,649.92s29.93-1.5,48,28.39A54.48,54.48,0,0,1,366,649.92Z"/><path class="cls-3" d="M366,705.18s16-27.26,48-26.87C414,678.31,397.9,705.29,366,705.18Z"/></g><text class="cls-4" transform="translate(391.4 784.88)"><tspan class="cls-5">D</tspan><tspan x="23.45" y="0">C</tspan></text><text class="cls-4" transform="translate(391.06 591.04)"><tspan class="cls-5">D</tspan><tspan x="23.45" y="0">C</tspan></text><g class="cls-1"><path class="cls-3" d="M172.33,540.84s16.54-28.79,0-55.26C172.33,485.58,154.48,509.18,172.33,540.84Z"/><path class="cls-3" d="M219.68,512.35s-15-27.66-47.35-26.77C172.33,485.58,188,514.33,219.68,512.35Z"/><path class="cls-3" d="M219.68,457.65s-28.65-2.41-47.35,27.93C172.33,485.58,207.89,484.18,219.68,457.65Z"/><path class="cls-3" d="M172.33,429.83s17.35,27.54,0,55.75C172.33,485.58,154.24,460.62,172.33,429.83Z"/><path class="cls-3" d="M124.31,457.19s29.93-1.5,48,28.39A54.47,54.47,0,0,1,124.31,457.19Z"/><path class="cls-3" d="M124.31,512.45s16-27.26,48-26.87C172.33,485.58,156.23,512.56,124.31,512.45Z"/></g><g class="cls-1"><path class="cls-3" d="M171.66,152.18s16.54-28.79,0-55.26C171.66,96.92,153.81,120.52,171.66,152.18Z"/><path class="cls-3" d="M219,123.68S204,96,171.66,96.92C171.66,96.92,187.36,125.67,219,123.68Z"/><path class="cls-3" d="M219,69s-28.66-2.41-47.36,27.93C171.66,96.92,207.22,95.52,219,69Z"/><path class="cls-3" d="M171.66,41.17s17.36,27.54,0,55.75C171.66,96.92,153.57,72,171.66,41.17Z"/><path class="cls-3" d="M123.64,68.53s29.93-1.5,48,28.39A54.48,54.48,0,0,1,123.64,68.53Z"/><path class="cls-3" d="M123.64,123.79s16-27.26,48-26.87C171.66,96.92,155.57,123.9,123.64,123.79Z"/></g><g class="cls-1"><path class="cls-3" d="M172,346.51s16.54-28.79,0-55.26C172,291.25,154.15,314.85,172,346.51Z"/><path class="cls-3" d="M219.35,318s-15-27.65-47.35-26.76C172,291.25,187.69,320,219.35,318Z"/><path class="cls-3" d="M219.35,263.32S190.7,260.91,172,291.25C172,291.25,207.56,289.85,219.35,263.32Z"/><path class="cls-3" d="M172,235.5s17.35,27.54,0,55.75C172,291.25,153.9,266.29,172,235.5Z"/><path class="cls-3" d="M124,262.86s29.93-1.5,48,28.39A54.49,54.49,0,0,1,124,262.86Z"/><path class="cls-3" d="M124,318.12s16-27.26,48-26.87C172,291.25,155.9,318.23,124,318.12Z"/></g><text class="cls-4" transform="translate(149.06 203.49)"><tspan class="cls-5">D</tspan><tspan x="23.45" y="0">C</tspan></text><text class="cls-4" transform="translate(148.9 397.82)"><tspan class="cls-5">D</tspan><tspan x="23.45" y="0">C</tspan></text><g class="cls-1"><path class="cls-3" d="M171.66,733.57s16.54-28.79,0-55.26C171.66,678.31,153.81,701.91,171.66,733.57Z"/><path class="cls-3" d="M219,705.08s-15-27.66-47.36-26.77C171.66,678.31,187.36,707.06,219,705.08Z"/><path class="cls-3" d="M219,650.38s-28.66-2.41-47.36,27.93C171.66,678.31,207.22,676.91,219,650.38Z"/><path class="cls-3" d="M171.66,622.56s17.36,27.54,0,55.75C171.66,678.31,153.57,653.35,171.66,622.56Z"/><path class="cls-3" d="M123.64,649.92s29.93-1.5,48,28.39A54.48,54.48,0,0,1,123.64,649.92Z"/><path class="cls-3" d="M123.64,705.18s16-27.26,48-26.87C171.66,678.31,155.57,705.29,123.64,705.18Z"/></g><text class="cls-4" transform="translate(149.06 784.88)"><tspan class="cls-5">D</tspan><tspan x="23.45" y="0">C</tspan></text><text class="cls-4" transform="translate(148.73 591.04)"><tspan class="cls-5">D</tspan><tspan x="23.45" y="0">C</tspan></text><g class="cls-1"><path class="cls-3" d="M895,540.84s16.54-28.79,0-55.26C895,485.58,877.14,509.18,895,540.84Z"/><path class="cls-3" d="M942.34,512.35s-15-27.66-47.35-26.77C895,485.58,910.68,514.33,942.34,512.35Z"/><path class="cls-3" d="M942.34,457.65s-28.65-2.41-47.35,27.93C895,485.58,930.55,484.18,942.34,457.65Z"/><path class="cls-3" d="M895,429.83s17.35,27.54,0,55.75C895,485.58,876.89,460.62,895,429.83Z"/><path class="cls-3" d="M847,457.19s29.93-1.5,48,28.39A54.49,54.49,0,0,1,847,457.19Z"/><path class="cls-3" d="M847,512.45s16-27.26,48-26.87C895,485.58,878.89,512.56,847,512.45Z"/></g><g class="cls-1"><path class="cls-3" d="M894.32,152.18s16.54-28.79,0-55.26C894.32,96.92,876.47,120.52,894.32,152.18Z"/><path class="cls-3" d="M941.67,123.68S926.7,96,894.32,96.92C894.32,96.92,910,125.67,941.67,123.68Z"/><path class="cls-3" d="M941.67,69S913,66.58,894.32,96.92C894.32,96.92,929.88,95.52,941.67,69Z"/><path class="cls-3" d="M894.32,41.17s17.35,27.54,0,55.75C894.32,96.92,876.23,72,894.32,41.17Z"/><path class="cls-3" d="M846.3,68.53s29.93-1.5,48,28.39A54.47,54.47,0,0,1,846.3,68.53Z"/><path class="cls-3" d="M846.3,123.79s16-27.26,48-26.87C894.32,96.92,878.22,123.9,846.3,123.79Z"/></g><g class="cls-1"><path class="cls-3" d="M894.65,346.51s16.54-28.79,0-55.26C894.65,291.25,876.8,314.85,894.65,346.51Z"/><path class="cls-3" d="M942,318s-15-27.65-47.36-26.76C894.65,291.25,910.35,320,942,318Z"/><path class="cls-3" d="M942,263.32s-28.66-2.41-47.36,27.93C894.65,291.25,930.21,289.85,942,263.32Z"/><path class="cls-3" d="M894.65,235.5s17.36,27.54,0,55.75C894.65,291.25,876.56,266.29,894.65,235.5Z"/><path class="cls-3" d="M846.63,262.86s29.93-1.5,48,28.39A54.48,54.48,0,0,1,846.63,262.86Z"/><path class="cls-3" d="M846.63,318.12s16-27.26,48-26.87C894.65,291.25,878.56,318.23,846.63,318.12Z"/></g><text class="cls-4" transform="translate(871.72 203.49)"><tspan class="cls-5">D</tspan><tspan x="23.45" y="0">C</tspan></text><text class="cls-4" transform="translate(871.56 397.82)"><tspan class="cls-5">D</tspan><tspan x="23.45" y="0">C</tspan></text><g class="cls-1"><path class="cls-3" d="M894.32,733.57s16.54-28.79,0-55.26C894.32,678.31,876.47,701.91,894.32,733.57Z"/><path class="cls-3" d="M941.67,705.08s-15-27.66-47.35-26.77C894.32,678.31,910,707.06,941.67,705.08Z"/><path class="cls-3" d="M941.67,650.38S913,648,894.32,678.31C894.32,678.31,929.88,676.91,941.67,650.38Z"/><path class="cls-3" d="M894.32,622.56s17.35,27.54,0,55.75C894.32,678.31,876.23,653.35,894.32,622.56Z"/><path class="cls-3" d="M846.3,649.92s29.93-1.5,48,28.39A54.47,54.47,0,0,1,846.3,649.92Z"/><path class="cls-3" d="M846.3,705.18s16-27.26,48-26.87C894.32,678.31,878.22,705.29,846.3,705.18Z"/></g><text class="cls-4" transform="translate(871.72 784.88)"><tspan class="cls-5">D</tspan><tspan x="23.45" y="0">C</tspan></text><text class="cls-4" transform="translate(871.39 591.04)"><tspan class="cls-5">D</tspan><tspan x="23.45" y="0">C</tspan></text><g class="cls-1"><path class="cls-3" d="M1139.65,540.84s16.54-28.79,0-55.26C1139.65,485.58,1121.8,509.18,1139.65,540.84Z"/><path class="cls-3" d="M1187,512.35s-15-27.66-47.36-26.77C1139.65,485.58,1155.35,514.33,1187,512.35Z"/><path class="cls-3" d="M1187,457.65s-28.66-2.41-47.36,27.93C1139.65,485.58,1175.21,484.18,1187,457.65Z"/><path class="cls-3" d="M1139.65,429.83s17.36,27.54,0,55.75C1139.65,485.58,1121.56,460.62,1139.65,429.83Z"/><path class="cls-3" d="M1091.63,457.19s29.93-1.5,48,28.39A54.48,54.48,0,0,1,1091.63,457.19Z"/><path class="cls-3" d="M1091.63,512.45s16-27.26,48-26.87C1139.65,485.58,1123.56,512.56,1091.63,512.45Z"/></g><g class="cls-1"><path class="cls-3" d="M1139,152.18s16.54-28.79,0-55.26C1139,96.92,1121.14,120.52,1139,152.18Z"/><path class="cls-3" d="M1186.34,123.68S1171.36,96,1139,96.92C1139,96.92,1154.68,125.67,1186.34,123.68Z"/><path class="cls-3" d="M1186.34,69s-28.65-2.41-47.35,27.93C1139,96.92,1174.55,95.52,1186.34,69Z"/><path class="cls-3" d="M1139,41.17s17.35,27.54,0,55.75C1139,96.92,1120.89,72,1139,41.17Z"/><path class="cls-3" d="M1091,68.53s29.93-1.5,48,28.39A54.49,54.49,0,0,1,1091,68.53Z"/><path class="cls-3" d="M1091,123.79s16-27.26,48-26.87C1139,96.92,1122.89,123.9,1091,123.79Z"/></g><g class="cls-1"><path class="cls-3" d="M1139.32,346.51s16.54-28.79,0-55.26C1139.32,291.25,1121.47,314.85,1139.32,346.51Z"/><path class="cls-3" d="M1186.67,318s-15-27.65-47.35-26.76C1139.32,291.25,1155,320,1186.67,318Z"/><path class="cls-3" d="M1186.67,263.32s-28.65-2.41-47.35,27.93C1139.32,291.25,1174.88,289.85,1186.67,263.32Z"/><path class="cls-3" d="M1139.32,235.5s17.35,27.54,0,55.75C1139.32,291.25,1121.23,266.29,1139.32,235.5Z"/><path class="cls-3" d="M1091.3,262.86s29.93-1.5,48,28.39A54.47,54.47,0,0,1,1091.3,262.86Z"/><path class="cls-3" d="M1091.3,318.12s16-27.26,48-26.87C1139.32,291.25,1123.22,318.23,1091.3,318.12Z"/></g><text class="cls-4" transform="translate(1116.39 203.49)"><tspan class="cls-5">D</tspan><tspan x="23.45" y="0">C</tspan></text><text class="cls-4" transform="translate(1116.22 397.82)"><tspan class="cls-5">D</tspan><tspan x="23.45" y="0">C</tspan></text><g class="cls-1"><path class="cls-3" d="M1139,733.57s16.54-28.79,0-55.26C1139,678.31,1121.14,701.91,1139,733.57Z"/><path class="cls-3" d="M1186.34,705.08s-15-27.66-47.35-26.77C1139,678.31,1154.68,707.06,1186.34,705.08Z"/><path class="cls-3" d="M1186.34,650.38S1157.69,648,1139,678.31C1139,678.31,1174.55,676.91,1186.34,650.38Z"/><path class="cls-3" d="M1139,622.56s17.35,27.54,0,55.75C1139,678.31,1120.89,653.35,1139,622.56Z"/><path class="cls-3" d="M1091,649.92s29.93-1.5,48,28.39A54.49,54.49,0,0,1,1091,649.92Z"/><path class="cls-3" d="M1091,705.18s16-27.26,48-26.87C1139,678.31,1122.89,705.29,1091,705.18Z"/></g><text class="cls-4" transform="translate(1116.39 784.88)"><tspan class="cls-5">D</tspan><tspan x="23.45" y="0">C</tspan></text><text class="cls-4" transform="translate(1116.05 591.04)"><tspan class="cls-5">D</tspan><tspan x="23.45" y="0">C</tspan></text><g class="cls-1"><path class="cls-3" d="M1388.32,540.84s16.54-28.79,0-55.26C1388.32,485.58,1370.47,509.18,1388.32,540.84Z"/><path class="cls-3" d="M1435.68,512.35s-15-27.66-47.36-26.77C1388.32,485.58,1404,514.33,1435.68,512.35Z"/><path class="cls-3" d="M1435.68,457.65s-28.66-2.41-47.36,27.93C1388.32,485.58,1423.88,484.18,1435.68,457.65Z"/><path class="cls-3" d="M1388.32,429.83s17.36,27.54,0,55.75C1388.32,485.58,1370.23,460.62,1388.32,429.83Z"/><path class="cls-3" d="M1340.3,457.19s29.93-1.5,48,28.39A54.48,54.48,0,0,1,1340.3,457.19Z"/><path class="cls-3" d="M1340.3,512.45s16-27.26,48-26.87C1388.32,485.58,1372.23,512.56,1340.3,512.45Z"/></g><g class="cls-1"><path class="cls-3" d="M1387.66,152.18s16.54-28.79,0-55.26C1387.66,96.92,1369.81,120.52,1387.66,152.18Z"/><path class="cls-3" d="M1435,123.68S1420,96,1387.66,96.92C1387.66,96.92,1403.35,125.67,1435,123.68Z"/><path class="cls-3" d="M1435,69s-28.65-2.41-47.35,27.93C1387.66,96.92,1423.22,95.52,1435,69Z"/><path class="cls-3" d="M1387.66,41.17s17.35,27.54,0,55.75C1387.66,96.92,1369.56,72,1387.66,41.17Z"/><path class="cls-3" d="M1339.63,68.53s29.93-1.5,48,28.39A54.49,54.49,0,0,1,1339.63,68.53Z"/><path class="cls-3" d="M1339.63,123.79s16-27.26,48-26.87C1387.66,96.92,1371.56,123.9,1339.63,123.79Z"/></g><g class="cls-1"><path class="cls-3" d="M1388,346.51s16.54-28.79,0-55.26C1388,291.25,1370.14,314.85,1388,346.51Z"/><path class="cls-3" d="M1435.34,318s-15-27.65-47.35-26.76C1388,291.25,1403.68,320,1435.34,318Z"/><path class="cls-3" d="M1435.34,263.32s-28.65-2.41-47.35,27.93C1388,291.25,1423.55,289.85,1435.34,263.32Z"/><path class="cls-3" d="M1388,235.5s17.35,27.54,0,55.75C1388,291.25,1369.9,266.29,1388,235.5Z"/><path class="cls-3" d="M1340,262.86s29.93-1.5,48,28.39A54.47,54.47,0,0,1,1340,262.86Z"/><path class="cls-3" d="M1340,318.12s16-27.26,48-26.87C1388,291.25,1371.89,318.23,1340,318.12Z"/></g><text class="cls-4" transform="translate(1365.06 203.49)"><tspan class="cls-5">D</tspan><tspan x="23.45" y="0">C</tspan></text><text class="cls-4" transform="translate(1364.89 397.82)"><tspan class="cls-5">D</tspan><tspan x="23.45" y="0">C</tspan></text><g class="cls-1"><path class="cls-3" d="M1387.66,733.57s16.54-28.79,0-55.26C1387.66,678.31,1369.81,701.91,1387.66,733.57Z"/><path class="cls-3" d="M1435,705.08s-15-27.66-47.35-26.77C1387.66,678.31,1403.35,707.06,1435,705.08Z"/><path class="cls-3" d="M1435,650.38s-28.65-2.41-47.35,27.93C1387.66,678.31,1423.22,676.91,1435,650.38Z"/><path class="cls-3" d="M1387.66,622.56s17.35,27.54,0,55.75C1387.66,678.31,1369.56,653.35,1387.66,622.56Z"/><path class="cls-3" d="M1339.63,649.92s29.93-1.5,48,28.39A54.49,54.49,0,0,1,1339.63,649.92Z"/><path class="cls-3" d="M1339.63,705.18s16-27.26,48-26.87C1387.66,678.31,1371.56,705.29,1339.63,705.18Z"/></g><text class="cls-4" transform="translate(1365.06 784.88)"><tspan class="cls-5">D</tspan><tspan x="23.45" y="0">C</tspan></text><text class="cls-4" transform="translate(1364.72 591.04)"><tspan class="cls-5">D</tspan><tspan x="23.45" y="0">C</tspan></text><g class="cls-1"><path class="cls-3" d="M1641,540.84s16.54-28.79,0-55.26C1641,485.58,1623.15,509.18,1641,540.84Z"/><path class="cls-3" d="M1688.35,512.35s-15-27.66-47.35-26.77C1641,485.58,1656.69,514.33,1688.35,512.35Z"/><path class="cls-3" d="M1688.35,457.65s-28.65-2.41-47.35,27.93C1641,485.58,1676.56,484.18,1688.35,457.65Z"/><path class="cls-3" d="M1641,429.83s17.35,27.54,0,55.75C1641,485.58,1622.9,460.62,1641,429.83Z"/><path class="cls-3" d="M1593,457.19s29.93-1.5,48,28.39A54.49,54.49,0,0,1,1593,457.19Z"/><path class="cls-3" d="M1593,512.45s16-27.26,48-26.87C1641,485.58,1624.9,512.56,1593,512.45Z"/></g><g class="cls-1"><path class="cls-3" d="M1640.33,152.18s16.54-28.79,0-55.26C1640.33,96.92,1622.48,120.52,1640.33,152.18Z"/><path class="cls-3" d="M1687.68,123.68s-15-27.65-47.35-26.76C1640.33,96.92,1656,125.67,1687.68,123.68Z"/><path class="cls-3" d="M1687.68,69s-28.65-2.41-47.35,27.93C1640.33,96.92,1675.89,95.52,1687.68,69Z"/><path class="cls-3" d="M1640.33,41.17s17.35,27.54,0,55.75C1640.33,96.92,1622.24,72,1640.33,41.17Z"/><path class="cls-3" d="M1592.31,68.53s29.93-1.5,48,28.39A54.47,54.47,0,0,1,1592.31,68.53Z"/><path class="cls-3" d="M1592.31,123.79s16-27.26,48-26.87C1640.33,96.92,1624.23,123.9,1592.31,123.79Z"/></g><g class="cls-1"><path class="cls-3" d="M1640.66,346.51s16.54-28.79,0-55.26C1640.66,291.25,1622.81,314.85,1640.66,346.51Z"/><path class="cls-3" d="M1688,318s-15-27.65-47.36-26.76C1640.66,291.25,1656.36,320,1688,318Z"/><path class="cls-3" d="M1688,263.32s-28.66-2.41-47.36,27.93C1640.66,291.25,1676.22,289.85,1688,263.32Z"/><path class="cls-3" d="M1640.66,235.5s17.36,27.54,0,55.75C1640.66,291.25,1622.57,266.29,1640.66,235.5Z"/><path class="cls-3" d="M1592.64,262.86s29.93-1.5,48,28.39A54.48,54.48,0,0,1,1592.64,262.86Z"/><path class="cls-3" d="M1592.64,318.12s16-27.26,48-26.87C1640.66,291.25,1624.56,318.23,1592.64,318.12Z"/></g><text class="cls-4" transform="translate(1617.73 203.49)"><tspan class="cls-5">D</tspan><tspan x="23.45" y="0">C</tspan></text><text class="cls-4" transform="translate(1617.56 397.82)"><tspan class="cls-5">D</tspan><tspan x="23.45" y="0">C</tspan></text><g class="cls-1"><path class="cls-3" d="M1640.33,733.57s16.54-28.79,0-55.26C1640.33,678.31,1622.48,701.91,1640.33,733.57Z"/><path class="cls-3" d="M1687.68,705.08s-15-27.66-47.35-26.77C1640.33,678.31,1656,707.06,1687.68,705.08Z"/><path class="cls-3" d="M1687.68,650.38S1659,648,1640.33,678.31C1640.33,678.31,1675.89,676.91,1687.68,650.38Z"/><path class="cls-3" d="M1640.33,622.56s17.35,27.54,0,55.75C1640.33,678.31,1622.24,653.35,1640.33,622.56Z"/><path class="cls-3" d="M1592.31,649.92s29.93-1.5,48,28.39A54.47,54.47,0,0,1,1592.31,649.92Z"/><path class="cls-3" d="M1592.31,705.18s16-27.26,48-26.87C1640.33,678.31,1624.23,705.29,1592.31,705.18Z"/></g><text class="cls-4" transform="translate(1617.73 784.88)"><tspan class="cls-5">D</tspan><tspan x="23.45" y="0">C</tspan></text><text class="cls-4" transform="translate(1617.4 591.04)"><tspan class="cls-5">D</tspan><tspan x="23.45" y="0">C</tspan></text><g class="cls-1"><path class="cls-3" d="M1897.34,540.84s16.54-28.79,0-55.26C1897.34,485.58,1879.49,509.18,1897.34,540.84Z"/><path class="cls-3" d="M1944.69,512.35s-15-27.66-47.35-26.77C1897.34,485.58,1913,514.33,1944.69,512.35Z"/><path class="cls-3" d="M1944.69,457.65s-28.65-2.41-47.35,27.93C1897.34,485.58,1932.9,484.18,1944.69,457.65Z"/><path class="cls-3" d="M1897.34,429.83s17.35,27.54,0,55.75C1897.34,485.58,1879.24,460.62,1897.34,429.83Z"/><path class="cls-3" d="M1849.32,457.19s29.92-1.5,48,28.39A54.47,54.47,0,0,1,1849.32,457.19Z"/><path class="cls-3" d="M1849.32,512.45s16-27.26,48-26.87C1897.34,485.58,1881.24,512.56,1849.32,512.45Z"/></g><g class="cls-1"><path class="cls-3" d="M1896.67,152.18s16.54-28.79,0-55.26C1896.67,96.92,1878.82,120.52,1896.67,152.18Z"/><path class="cls-3" d="M1944,123.68s-15-27.65-47.36-26.76C1896.67,96.92,1912.36,125.67,1944,123.68Z"/><path class="cls-3" d="M1944,69s-28.66-2.41-47.36,27.93C1896.67,96.92,1932.23,95.52,1944,69Z"/><path class="cls-3" d="M1896.67,41.17s17.35,27.54,0,55.75C1896.67,96.92,1878.58,72,1896.67,41.17Z"/><path class="cls-3" d="M1848.65,68.53s29.93-1.5,48,28.39A54.47,54.47,0,0,1,1848.65,68.53Z"/><path class="cls-3" d="M1848.65,123.79s16-27.26,48-26.87C1896.67,96.92,1880.57,123.9,1848.65,123.79Z"/></g><g class="cls-1"><path class="cls-3" d="M1897,346.51s16.55-28.79,0-55.26C1897,291.25,1879.16,314.85,1897,346.51Z"/><path class="cls-3" d="M1944.36,318s-15-27.65-47.36-26.76C1897,291.25,1912.7,320,1944.36,318Z"/><path class="cls-3" d="M1944.36,263.32s-28.66-2.41-47.36,27.93C1897,291.25,1932.57,289.85,1944.36,263.32Z"/><path class="cls-3" d="M1897,235.5s17.36,27.54,0,55.75C1897,291.25,1878.91,266.29,1897,235.5Z"/><path class="cls-3" d="M1849,262.86s29.93-1.5,48,28.39A54.48,54.48,0,0,1,1849,262.86Z"/><path class="cls-3" d="M1849,318.12s16-27.26,48-26.87C1897,291.25,1880.91,318.23,1849,318.12Z"/></g><text class="cls-4" transform="translate(1874.07 203.49)"><tspan class="cls-5">D</tspan><tspan x="23.45" y="0">C</tspan></text><g class="cls-1"><path class="cls-2" d="M534.66,55.28s16.54-28.79,0-55.26C534.66,0,516.81,23.62,534.66,55.28Z"/><path class="cls-2" d="M582,26.78S567-.87,534.66,0C534.66,0,550.35,28.77,582,26.78Z"/><path class="cls-2" d="M582-27.91S553.36-30.32,534.66,0C534.66,0,570.22-1.38,582-27.91Z"/><path class="cls-2" d="M534.66-55.73S552-28.19,534.66,0C534.66,0,516.57-24.94,534.66-55.73Z"/><path class="cls-2" d="M486.64-28.37s29.93-1.5,48,28.39A54.47,54.47,0,0,1,486.64-28.37Z"/><path class="cls-2" d="M486.64,26.89s16-27.26,48-26.87C534.66,0,518.56,27,486.64,26.89Z"/></g><text class="cls-4" transform="translate(630.72 9.69)"><tspan class="cls-5">D</tspan><tspan x="23.45" y="0">C</tspan></text><g class="cls-1"><path class="cls-2" d="M293.66,55.28s16.54-28.79,0-55.26C293.66,0,275.81,23.62,293.66,55.28Z"/><path class="cls-2" d="M341,26.78S326-.87,293.66,0C293.66,0,309.36,28.77,341,26.78Z"/><path class="cls-2" d="M341-27.91S312.36-30.32,293.66,0C293.66,0,329.22-1.38,341-27.91Z"/><path class="cls-2" d="M293.66-55.73S311-28.19,293.66,0C293.66,0,275.57-24.94,293.66-55.73Z"/><path class="cls-2" d="M245.64-28.37s29.93-1.5,48,28.39A54.48,54.48,0,0,1,245.64-28.37Z"/><path class="cls-2" d="M245.64,26.89s16-27.26,48-26.87C293.66,0,277.56,27,245.64,26.89Z"/></g><g class="cls-1"><path class="cls-2" d="M49.66,55.28S66.2,26.49,49.66,0C49.66,0,31.81,23.62,49.66,55.28Z"/><path class="cls-2" d="M97,26.78S82-.87,49.66,0C49.66,0,65.36,28.77,97,26.78Z"/><path class="cls-2" d="M97-27.91S68.36-30.32,49.66,0C49.66,0,85.22-1.38,97-27.91Z"/><path class="cls-2" d="M49.66-55.73S67-28.19,49.66,0C49.66,0,31.57-24.94,49.66-55.73Z"/><path class="cls-2" d="M1.64-28.37s29.93-1.5,48,28.39A54.48,54.48,0,0,1,1.64-28.37Z"/><path class="cls-2" d="M1.64,26.89S17.66-.37,49.66,0C49.66,0,33.57,27,1.64,26.89Z"/></g><g class="cls-1"><path class="cls-2" d="M774,55.28S790.53,26.49,774,0C774,0,756.14,23.62,774,55.28Z"/><path class="cls-2" d="M821.34,26.78S806.37-.87,774,0C774,0,789.68,28.77,821.34,26.78Z"/><path class="cls-2" d="M821.34-27.91S792.69-30.32,774,0C774,0,809.55-1.38,821.34-27.91Z"/><path class="cls-2" d="M774-55.73S791.34-28.19,774,0C774,0,755.89-24.94,774-55.73Z"/><path class="cls-2" d="M726-28.37S755.89-29.87,774,0A54.47,54.47,0,0,1,726-28.37Z"/><path class="cls-2" d="M726,26.89S742-.37,774,0C774,0,757.89,27,726,26.89Z"/></g><g class="cls-1"><path class="cls-2" d="M1016.65,55.28s16.54-28.79,0-55.26C1016.65,0,998.8,23.62,1016.65,55.28Z"/><path class="cls-2" d="M1064,26.78S1049-.87,1016.65,0C1016.65,0,1032.35,28.77,1064,26.78Z"/><path class="cls-2" d="M1064-27.91S1035.35-30.32,1016.65,0C1016.65,0,1052.21-1.38,1064-27.91Z"/><path class="cls-2" d="M1016.65-55.73s17.36,27.54,0,55.75C1016.65,0,998.56-24.94,1016.65-55.73Z"/><path class="cls-2" d="M968.63-28.37s29.93-1.5,48,28.39A54.48,54.48,0,0,1,968.63-28.37Z"/><path class="cls-2" d="M968.63,26.89s16-27.26,48-26.87C1016.65,0,1000.56,27,968.63,26.89Z"/></g><g class="cls-1"><path class="cls-2" d="M1263.32,55.28s16.54-28.79,0-55.26C1263.32,0,1245.47,23.62,1263.32,55.28Z"/><path class="cls-2" d="M1310.68,26.78S1295.7-.87,1263.32,0C1263.32,0,1279,28.77,1310.68,26.78Z"/><path class="cls-2" d="M1310.68-27.91S1282-30.32,1263.32,0C1263.32,0,1298.88-1.38,1310.68-27.91Z"/><path class="cls-2" d="M1263.32-55.73s17.35,27.54,0,55.75C1263.32,0,1245.23-24.94,1263.32-55.73Z"/><path class="cls-2" d="M1215.3-28.37s29.93-1.5,48,28.39A54.47,54.47,0,0,1,1215.3-28.37Z"/><path class="cls-2" d="M1215.3,26.89s16-27.26,48-26.87C1263.32,0,1247.22,27,1215.3,26.89Z"/></g><g class="cls-1"><path class="cls-2" d="M1514,55.28s16.54-28.79,0-55.26C1514,0,1496.14,23.62,1514,55.28Z"/><path class="cls-2" d="M1561.35,26.78S1546.37-.87,1514,0C1514,0,1529.69,28.77,1561.35,26.78Z"/><path class="cls-2" d="M1561.35-27.91S1532.69-30.32,1514,0C1514,0,1549.55-1.38,1561.35-27.91Z"/><path class="cls-2" d="M1514-55.73s17.36,27.54,0,55.75C1514,0,1495.9-24.94,1514-55.73Z"/><path class="cls-2" d="M1466-28.37s29.93-1.5,48,28.39A54.48,54.48,0,0,1,1466-28.37Z"/><path class="cls-2" d="M1466,26.89S1482-.37,1514,0C1514,0,1497.89,27,1466,26.89Z"/></g><g class="cls-1"><path class="cls-2" d="M1768.67,55.28s16.54-28.79,0-55.26C1768.67,0,1750.82,23.62,1768.67,55.28Z"/><path class="cls-2" d="M1816,26.78S1801-.87,1768.67,0C1768.67,0,1784.36,28.77,1816,26.78Z"/><path class="cls-2" d="M1816-27.91S1787.37-30.32,1768.67,0C1768.67,0,1804.23-1.38,1816-27.91Z"/><path class="cls-2" d="M1768.67-55.73s17.35,27.54,0,55.75C1768.67,0,1750.57-24.94,1768.67-55.73Z"/><path class="cls-2" d="M1720.64-28.37s29.93-1.5,48,28.39A54.49,54.49,0,0,1,1720.64-28.37Z"/><path class="cls-2" d="M1720.64,26.89s16-27.26,48-26.87C1768.67,0,1752.57,27,1720.64,26.89Z"/></g><g class="cls-1"><path class="cls-2" d="M2011.34,55.28s16.54-28.79,0-55.26C2011.34,0,1993.49,23.62,2011.34,55.28Z"/><path class="cls-2" d="M2058.69,26.78S2043.72-.87,2011.34,0C2011.34,0,2027,28.77,2058.69,26.78Z"/><path class="cls-2" d="M2058.69-27.91S2030-30.32,2011.34,0C2011.34,0,2046.9-1.38,2058.69-27.91Z"/><path class="cls-2" d="M2011.34-55.73s17.35,27.54,0,55.75C2011.34,0,1993.24-24.94,2011.34-55.73Z"/><path class="cls-2" d="M1963.32-28.37s29.92-1.5,48,28.39A54.47,54.47,0,0,1,1963.32-28.37Z"/><path class="cls-2" d="M1963.32,26.89s16-27.26,48-26.87C2011.34,0,1995.24,27,1963.32,26.89Z"/></g><text class="cls-4" transform="translate(391.4 9.69)"><tspan class="cls-5">D</tspan><tspan x="23.45" y="0">C</tspan></text><text class="cls-4" transform="translate(149.06 9.69)"><tspan class="cls-5">D</tspan><tspan x="23.45" y="0">C</tspan></text><text class="cls-4" transform="translate(871.72 9.69)"><tspan class="cls-5">D</tspan><tspan x="23.45" y="0">C</tspan></text><text class="cls-4" transform="translate(1116.39 9.69)"><tspan class="cls-5">D</tspan><tspan x="23.45" y="0">C</tspan></text><text class="cls-4" transform="translate(1365.06 9.69)"><tspan class="cls-5">D</tspan><tspan x="23.45" y="0">C</tspan></text><text class="cls-4" transform="translate(1617.73 9.69)"><tspan class="cls-5">D</tspan><tspan x="23.45" y="0">C</tspan></text><text class="cls-4" transform="translate(1874.07 9.69)"><tspan class="cls-5">D</tspan><tspan x="23.45" y="0">C</tspan></text><text class="cls-4" transform="translate(1873.91 397.82)"><tspan class="cls-5">D</tspan><tspan x="23.45" y="0">C</tspan></text><g class="cls-1"><path class="cls-3" d="M1896.67,733.57s16.54-28.79,0-55.26C1896.67,678.31,1878.82,701.91,1896.67,733.57Z"/><path class="cls-3" d="M1944,705.08s-15-27.66-47.36-26.77C1896.67,678.31,1912.36,707.06,1944,705.08Z"/><path class="cls-3" d="M1944,650.38s-28.66-2.41-47.36,27.93C1896.67,678.31,1932.23,676.91,1944,650.38Z"/><path class="cls-3" d="M1896.67,622.56s17.35,27.54,0,55.75C1896.67,678.31,1878.58,653.35,1896.67,622.56Z"/><path class="cls-3" d="M1848.65,649.92s29.93-1.5,48,28.39A54.47,54.47,0,0,1,1848.65,649.92Z"/><path class="cls-3" d="M1848.65,705.18s16-27.26,48-26.87C1896.67,678.31,1880.57,705.29,1848.65,705.18Z"/></g><text class="cls-4" transform="translate(1874.07 784.88)"><tspan class="cls-5">D</tspan><tspan x="23.45" y="0">C</tspan></text><text class="cls-4" transform="translate(1873.74 591.04)"><tspan class="cls-5">D</tspan><tspan x="23.45" y="0">C</tspan></text></svg>