<?xml version="1.0" encoding="utf-8"?>
<!-- Generator: Adobe Illustrator 23.1.1, SVG Export Plug-In . SVG Version: 6.00 Build 0)  -->
<svg version="1.1" id="Layer_1" xmlns="http://www.w3.org/2000/svg" xmlns:xlink="http://www.w3.org/1999/xlink" x="0px" y="0px"
	 viewBox="0 0 1920 1080" style="enable-background:new 0 0 1920 1080;" xml:space="preserve">
<style type="text/css">
	.st0{enable-background:new    ;}
</style>
<g class="st0">
	<path d="M887.2,348.5c0-0.5,0.3-0.9,1-1.1c0.7-0.3,1.8-0.5,3.4-0.8c3-0.6,5.5-1.6,7.4-3.1c1.9-1.5,3.3-3.7,4.1-6.5l14.6-51.4
		c1-3.6,1.4-6.1,1.4-7.6c0-1.7-0.6-2.5-1.8-2.5h-10c-3.5,0-6.3,0.7-8.5,2c-2.1,1.3-4.1,3.1-5.9,5.3c-0.8,0.9-1.5,1.8-2,2.8
		c-1.5,2.1-2.6,3.1-3.1,3.1c-0.5,0-0.8-0.1-1-0.3c-0.2-0.2-0.3-0.6-0.3-1.3c0-0.8,0.4-2,1.2-3.7c0.2-0.6,1-2.1,2.2-4.5
		c1.2-2.4,2.2-4.9,2.8-7.3c0.2-0.6,0.5-1.1,0.9-1.6c0.4-0.5,0.8-0.8,1.1-0.8c0.5,0,1.2,0.5,2.2,1.4c0.5,0.5,1.3,0.8,2.4,1.1
		c1.1,0.2,3.4,0.4,6.7,0.4H949c3.3,0,5.5-0.1,6.8-0.4c1.2-0.3,2.1-0.7,2.7-1.1c0.1-0.1,0.4-0.3,0.8-0.7c0.5-0.4,0.9-0.6,1.2-0.6
		c0.8,0,1.2,0.4,1.2,1.3c0,0.8-0.4,1.9-1.2,3.4c-0.6,1-1.3,2.8-2.1,5.5c-0.8,2.7-1.5,5.5-2.1,8.4c-0.2,1.1-0.7,1.7-1.3,1.7
		c-0.6,0-1-0.2-1.3-0.7c-0.3-0.5-0.4-1.2-0.4-2c0-3.8-0.6-6.7-1.9-8.5c-1.2-1.8-3.3-2.8-6.2-2.8h-12c-1.1,0-2,0.2-2.6,0.7
		c-0.6,0.5-1.3,1.4-1.9,2.9c-0.6,1.4-1.3,3.7-2.2,6.8l-14.5,51c-0.3,1-0.5,2.1-0.5,3.2c0,3.4,2.2,5.5,6.5,6.4c1.2,0.2,2,0.5,2.4,0.7
		c0.4,0.2,0.6,0.6,0.6,1.2c0,0.9-1.2,1.3-3.6,1.3c-2.8,0-5.1-0.1-7-0.4c-2.4-0.2-4.4-0.2-5.9-0.2c-1.8,0-4.2,0.1-7.1,0.2
		c-2.2,0.2-4.6,0.4-7.4,0.4C888.2,349.8,887.2,349.4,887.2,348.5z"/>
	<path d="M952.4,350.5c-0.4-0.6-0.6-1.4-0.6-2.2c0-1,0.1-2.2,0.4-3.6c0.3-1.4,0.7-2.8,1.1-4.4l16.9-58c1.2-3.9,1.8-6.6,1.8-8.2
		c0-0.7-0.4-1.3-1.1-1.6c-0.8-0.4-1.9-0.8-3.3-1.3c-1.4-0.4-2.2-0.8-2.2-1.3c0-0.3,0.1-0.6,0.4-0.9c0.3-0.3,0.8-0.6,1.6-0.9
		c1.8-0.7,4.1-1.5,6.9-2.4c2.8-0.9,4.6-1.3,5.3-1.3c1.4,0,2,0.4,2,1.2c0,1-0.2,2-0.6,3.2l-16.3,56.4c-0.2,0.6-0.1,0.9,0.1,0.9
		c0.2,0,0.4-0.1,0.7-0.5c5.3-7.8,10.7-14.3,16.4-19.3c5.6-5,10.3-7.6,13.9-7.6c2.6,0,4.6,0.9,6,2.6c1.4,1.7,2.2,3.8,2.2,6.2
		c0,6-1.6,12.5-4.7,19.4c-3.1,7-6.8,12.7-11.2,17.3c-1.2,1.3-3.2,2.7-5.9,4.3c-2.8,1.6-5.1,2.4-7.1,2.4c-0.9,0-1.9-0.5-3-1.6
		c-1.1-1-1.7-2-1.7-2.9c0-0.6,0.3-1.4,1-2.2c0.7-0.8,1.4-1.3,2.1-1.3c1,0,2.1,0.5,3.2,1.4c0.6,0.6,1.2,1,1.6,1.2
		c0.4,0.2,0.9,0.4,1.5,0.4c2.2,0,4.6-2,7.1-6.1c2.5-4,4.7-8.9,6.4-14.6c1.8-5.7,2.6-10.8,2.6-15.2c0-3.8-1.5-5.8-4.6-5.8
		c-2.6,0-5.9,2.1-9.8,6.2c-3.9,4.1-7.7,9-11.5,14.5c-3.7,5.6-6.7,10.5-8.9,14.8c-0.4,0.9-1,2-1.8,3.5c-1.4,3-2.6,5-3.4,6.2
		c-0.8,1.2-1.6,1.8-2.3,1.8C953.3,351.4,952.8,351.1,952.4,350.5z"/>
	<path d="M1013.3,349.1c-1.7-1.3-3.1-2.9-4.3-4.9c-1.1-2-1.7-3.9-1.7-5.7c0-5.4,1.5-11.2,4.4-17.3c2.9-6.1,6.8-11.3,11.6-15.4
		c4.8-4.2,9.9-6.2,15.3-6.2c2.8,0,5,0.6,6.5,1.7c1.6,1.2,2.3,2.8,2.3,4.9c0,4.6-2.5,8.1-7.6,10.7c-5,2.6-11.6,4.6-19.8,6.1
		c-0.1,0-0.3,0-0.6,0.1c-0.3,0.1-0.6,0.2-0.8,0.4c-0.2,0.2-0.3,0.4-0.4,0.7c-1.7,4.9-2.5,8.8-2.5,11.6c0,2.8,0.5,5,1.6,6.5
		c1.1,1.5,2.7,2.3,4.7,2.3c2.6,0,4.8-0.6,6.7-1.8c1.9-1.2,3.8-2.8,5.5-4.7c0.8-0.9,1.5-1.3,2.2-1.3c0.8,0,1.2,0.4,1.2,1.2
		c0,0.4-0.1,0.7-0.2,1c-2.4,3.9-5.2,6.9-8.5,9c-3.3,2.1-6.8,3.1-10.7,3.1C1016.7,351,1015,350.4,1013.3,349.1z M1028.2,318.6
		c3.2-1.1,6.1-2.7,8.6-4.7c2.5-2.1,3.8-4.6,3.8-7.4c0-1-0.3-1.9-0.9-2.7c-0.6-0.8-1.4-1.1-2.3-1.1c-2,0-4.3,1.1-7,3.4
		c-2.7,2.2-5,4.8-7.1,7.6c-2,2.8-3.1,4.8-3.1,6c0,0.3,0.1,0.5,0.2,0.6c0.2,0.1,0.4,0.1,0.6,0.1
		C1022.6,320.2,1025,319.7,1028.2,318.6z"/>
</g>
<g class="st0">
	<path d="M874.8,772.2c-4.7-2.6-8.6-6.2-11.8-10.8c-3.1-4.6-4.7-9.9-4.7-15.8c0-9.4,2.2-17.9,6.7-25.7c4.5-7.8,10.5-14,18-18.5
		c7.5-4.5,15.6-6.8,24.1-6.8c4.6,0,9,0.8,13.3,2.3c0.8,0.2,1.9,0.6,3.4,1.1c1.5,0.5,2.6,0.8,3.4,0.8c0.4,0,1.2-0.3,2.5-1
		c0.2-0.1,0.7-0.2,1.3-0.5s1.1-0.4,1.5-0.4c0.8,0,1.2,0.3,1.2,1c0,0.4-0.1,0.7-0.4,1c-1.5,2.1-3.1,4.8-4.8,8.2
		c-1.7,3.4-2.8,6.3-3.2,8.8c-0.1,0.6-0.4,1.1-0.8,1.6c-0.5,0.5-0.9,0.8-1.3,0.8c-0.6,0-1.1-0.3-1.5-1c-0.4-0.6-0.5-1.4-0.3-2.2
		c0.3-1.8,0.5-3.2,0.5-4.2c0-2.6-0.8-4.9-2.3-6.8c-1.4-1.8-3.3-3.3-5.5-4.3c-2.2-1-4.7-1.6-7.3-1.6c-5.8,0-11.7,2.2-17.6,6.5
		c-5.9,4.4-10.7,10.2-14.6,17.6c-3.8,7.4-5.8,15.4-5.8,24.1c0,6.1,1.1,11,3.4,14.9c2.3,3.8,5.2,6.6,8.6,8.3
		c3.5,1.7,7.1,2.6,10.9,2.6c3.8,0,7.1-0.6,9.7-1.9c2.6-1.2,4.7-2.9,6.4-4.9c1.7-2,3.5-4.6,5.4-7.9c0.5-0.7,0.9-1.3,1.3-1.7
		c0.4-0.4,0.9-0.6,1.4-0.6c0.3,0,0.5,0.2,0.7,0.5c0.1,0.4,0.2,1,0.2,1.9c0,0.8-0.6,2.7-1.9,5.6c-1.2,2.9-2.6,5.7-4,8.2
		c-1.4,2.6-2.3,3.8-2.8,3.8c-0.3,0-0.7-0.2-1.3-0.6c-0.5-0.4-0.9-0.6-1-0.7c-0.9-0.7-1.7-1.1-2.5-1.1c-0.6,0-2.3,0.4-4.9,1.3
		c-3.2,1.1-6.5,1.7-10,1.7C884.1,776,879.5,774.7,874.8,772.2z"/>
	<path d="M927.9,774.3c-1.2-1.1-1.9-2.3-1.9-3.6l0.2-1.4l22.8-64.9c0.8-2.2,1.2-4.3,1.2-6.4c0-0.7-0.4-1.4-1.1-2
		c-0.8-0.6-1.7-1.1-2.8-1.3c-1.8-0.4-2.6-0.9-2.6-1.6c0-0.8,0.2-1.2,0.7-1.3c2.2-0.6,5.1-1.1,8.6-1.7c3.5-0.6,5.8-0.8,6.7-0.8
		c0.4,0,0.7,0.2,1,0.5c0.3,0.3,0.4,0.8,0.4,1.3c0,0.8-0.2,1.9-0.7,3.4l-24.2,69.1c-0.4,1.1-0.6,2.3-0.6,3.5c0,1.3,0.4,1.9,1.2,1.9
		c1.5,0,3.6-1.2,6.2-3.7c2.6-2.4,4.8-4.9,6.6-7.4c0.6-0.7,1.1-1.4,1.7-1.9c0.6-0.6,1.1-0.8,1.4-0.8c0.2,0,0.4,0.2,0.5,0.5
		c0.1,0.3,0.1,0.7,0.1,1.1c0,2.5-1.3,5.2-4,8.3c-2.7,3-5.8,5.6-9.4,7.8c-3.6,2.2-6.4,3.2-8.6,3.2C930.3,776,929.1,775.5,927.9,774.3
		z"/>
</g>
<g class="st0">
	<path d="M964.4,774.9c-0.9-0.8-1.6-1.7-2.1-2.7c-0.5-1-0.6-1.9-0.4-2.5l12.6-30.4c0.7-1.8,1.1-3.1,1.1-3.8s-0.2-1.1-0.7-1.1
		c-1,0-3.9,2.1-8.6,6.4c-0.1,0.1-0.3,0.1-0.6,0.1c-0.6,0-1-0.2-1-0.5c0-1.1,0.5-2.3,1.4-3.6c1.8-2.5,4-4.7,6.4-6.6
		c2.4-1.9,4.8-3.4,7-4.4c2.2-1,4-1.6,5.2-1.6c0.7,0,1.4,0.5,2.2,1.4c0.7,0.9,0.9,1.8,0.5,2.6c-2.5,5.2-5.9,12.7-10.2,22.6l-4.6,10.6
		c-0.9,2-1.3,3.6-1.3,4.9c0,1,0.3,1.6,1,1.6c1.1,0,2.9-1.2,5.5-3.7c2.5-2.4,5.9-6,10-10.6c4.2-4.6,8.3-9.7,12.4-15.3
		c4.1-5.6,6.7-9.4,7.9-11.6c0.7-1.3,1.7-1.9,3-1.9c0.7,0,1.4,0.5,2.1,1.6c0.7,1,0.9,1.9,0.5,2.5L998.3,764c-0.6,1.4-0.8,2.4-0.8,3.2
		c0,1,0.4,1.4,1.2,1.4c1.4,0,3.4-1,6.1-3.1c2.7-2,5.2-4.2,7.6-6.5c0.1-0.1,0.2-0.1,0.4-0.1c0.2,0,0.5,0.1,0.7,0.3
		c0.2,0.2,0.4,0.5,0.4,0.8c0,0.7-0.9,2.1-2.6,4.2c-2.7,3.4-5.7,6.2-8.9,8.4c-3.2,2.2-6.6,3.4-10,3.4c-0.9,0-1.7-0.5-2.5-1.5
		c-0.8-1-1.1-2-1.1-3.1c0-0.2,0.1-0.6,0.2-1.1c5.2-11.2,8.2-18,9.1-20.4l0.2-1c0-0.4-0.2-0.6-0.5-0.6c-0.4,0-0.8,0.2-1.2,0.6
		c-9,9.8-15.7,16.8-20,20.9c-4.3,4.1-7.4,6.1-9.4,6.1C966.2,776,965.3,775.6,964.4,774.9z"/>
</g>
<g class="st0">
	<path d="M1026,772.7c-1.8-1.8-2.8-4.2-2.8-7.2c0-4.3,0.9-9.2,2.8-14.5l15.1-45.7c0.8-2.2,1.2-4.3,1.2-6.5c0-0.8-1-1.5-3-2
		c-2.5-0.6-3.7-1.2-3.7-1.8c0-0.7,0.6-1.3,1.9-1.7c1.8-0.6,4.4-1.4,7.7-2.3c3.3-0.9,5.3-1.4,6.1-1.4c1.3,0,1.9,0.4,1.9,1.2
		c0,1-0.3,2.4-0.8,4c-1.5,4-4.3,11.8-8.2,23.3c-4,11.6-6.8,20.1-8.6,25.5c-0.2,0.5-0.2,0.8-0.2,0.8c0,0.4,0.2,0.6,0.5,0.6
		c0.3,0,0.7-0.3,1.2-0.8c4.7-6.2,9.2-11,13.4-14.4c4.2-3.4,7.8-5,10.9-5c2.6,0,4.7,0.8,6.4,2.5c1.7,1.7,2.5,3.8,2.5,6.4
		c0,5.9-1.9,12.2-5.8,18.7c-3.8,6.6-8.6,12-14.4,16.4c-5.8,4.4-11.3,6.6-16.6,6.6C1030.3,775.3,1027.8,774.4,1026,772.7z
		 M1043.2,767.8c2.9-2.4,5.8-5.5,8.6-9.3c2.9-3.8,5.3-8.2,7.4-13s3.1-8.6,3.1-11.5c0-1.4-0.3-2.5-1-3.4c-0.7-0.9-1.5-1.4-2.5-1.4
		c-2.5,0-5.3,1.4-8.5,4.1c-3.2,2.8-6.9,7.1-11.2,12.9c-2.6,3.8-4.8,7.2-6.4,10.3c-1.6,3.1-2.4,5.4-2.4,6.9c0,2.2,0.6,4,1.9,5.6
		c1.2,1.6,2.7,2.4,4.4,2.4C1038.1,771.5,1040.3,770.3,1043.2,767.8z"/>
</g>
<g class="st0">
	<path d="M579.6,582.5c-12.7-0.6-22.1-0.9-28-0.9c-2,0-4.7,0.1-8.2,0.4c-3,0.4-6.7,0.6-11.2,0.6c-3,0-4.5-0.7-4.5-2.1
		c0-0.9,0.6-1.6,1.8-2.2c1.2-0.6,2.8-1,5-1.1c3.7-0.1,6.7-0.7,8.8-1.8c2.1-1.1,3.7-2.5,4.9-4.3c1.1-1.8,2.2-4.5,3.4-7.9l28-86.2
		c0.2-0.6,0.4-1.5,0.4-2.6c0-2.6-1.2-4.5-3.6-5.5c-2.4-1.1-4.9-1.9-7.7-2.4c-2.7-0.6-4.6-0.9-5.4-1c-1.7-0.4-2.9-0.8-3.6-1.4
		c-0.6-0.6-0.9-1.3-0.9-2.3c0-1.4,1.9-2.1,5.6-2.1c3.6,0,8.4,0.1,14.4,0.4c5,0.3,8.7,0.4,11.2,0.4c3.2,0,6.2-0.2,8.8-0.6
		c5.6-0.4,9.1-0.6,10.5-0.6c18,0,32.2,4.5,42.7,13.5c10.5,9,15.8,21.8,15.8,38.5c0,12.7-3.4,24.6-10.3,35.5
		c-6.9,11-16.4,19.8-28.5,26.4c-12.2,6.6-25.9,9.9-41.2,9.9L579.6,582.5z M621,567.4c9.6-6.6,17.1-15.2,22.5-25.9
		c5.4-10.7,8.1-21.9,8.1-33.8c0-14.1-3.6-24.7-10.7-31.8c-7.1-7.1-17.1-10.7-29.9-10.7c-5,0-8.6,0.3-10.9,1
		c-2.3,0.7-3.8,1.6-4.5,2.6c-0.7,1.1-1.5,3-2.3,5.9l-25.4,80.4c-1,3.4-1.5,6.2-1.5,8.4c0,4.9,1.9,8.4,5.7,10.5
		c3.8,2.1,9.3,3.2,16.5,3.2C600.6,577.3,611.4,574,621,567.4z"/>
	<path d="M739.6,577.8c-6.3-4.3-11-10.1-14-17.3c-3.1-7.2-4.6-15.3-4.6-24.3c0-12.5,2.9-24.8,8.8-36.9c5.9-12.2,14.3-22.2,25.3-30
		c11-7.9,24-11.8,38.8-11.8c9.4,0,17.2,2.2,23.5,6.5c6.3,4.3,11,10.1,14,17.3c3.1,7.2,4.6,15.3,4.6,24.3c0,12.5-2.9,24.8-8.8,36.9
		c-5.9,12.2-14.3,22.2-25.3,30c-11,7.9-24,11.8-38.8,11.8C753.7,584.2,745.9,582.1,739.6,577.8z M792.7,566.4
		c8.7-8,15.4-18.3,20.2-30.8c4.8-12.5,7.2-24.9,7.2-37.2c0-9.8-2.2-18.3-6.7-25.2c-4.5-7-11.2-10.5-20-10.5
		c-10.3,0-19.8,4.1-28.4,12.2c-8.6,8.2-15.4,18.5-20.5,31.1c-5,12.6-7.6,25-7.6,37.2c0,9.7,2.2,18,6.7,24.9
		c4.5,6.9,11.2,10.3,20,10.3C774.4,578.4,784.1,574.4,792.7,566.4z"/>
	<path d="M874.2,580.5c0-1.5,2.2-2.6,6.7-3.4c4.7-0.9,8.4-2.4,11.1-4.5c2.7-2.1,4.7-5.4,6.1-9.7l25.1-81.9c1.4-4.4,2.1-7.4,2.1-9.2
		c0-2.2-0.9-3.8-2.8-4.6c-1.9-0.8-5.4-1.5-10.7-2c-1.9-0.1-3.2-0.4-4-0.9c-0.8-0.5-1.2-1.2-1.2-2.2c0-0.9,0.6-1.5,1.9-2
		c1.2-0.4,2.7-0.7,4.5-0.7l16.6,0.2c2.9,0,6.9-0.1,12.2-0.4l8.6-0.2c10.5,0,19.2,2.3,26.3,6.9c7,4.6,10.6,11.5,10.6,20.8
		c0,9.3-3.1,17-9.3,23.1c-6.2,6-13.9,10.5-23.1,13.4c-1.7,0.6-2.3,1.7-1.7,3.2c1.2,3.1,3.7,8.8,7.5,16.9c3.7,8.2,6.9,14.8,9.4,19.9
		c2.4,4.6,4.6,7.8,6.8,9.5c2.2,1.7,5.2,3,9.1,3.7c2.4,0.4,4,0.7,5,1c0.9,0.3,1.4,0.8,1.4,1.6c0,1.2-0.8,2.1-2.5,2.5
		c-1.7,0.4-4,0.7-7,0.7c-6,0-10.8-0.5-14.4-1.4c-3.6-0.9-6.2-2.7-7.7-5.3c-2.9-4.9-6.1-11.2-9.7-19c-3.6-7.8-6.8-15-9.5-21.6
		c-1.5-3.7-3-6.2-4.4-7.4c-1.4-1.2-3.8-1.8-7-1.8c-2.6,0-4.4,0.2-5.4,0.7c-1,0.4-1.7,1.3-2.1,2.7l-9.9,31.6c-0.9,2.6-1.3,5-1.3,7.3
		c0,4.9,2.7,7.9,8,9c1.7,0.4,3,0.8,3.6,1.3c0.7,0.5,1,1.2,1,2.1c0,1.4-1.9,2.1-5.6,2.1c-3.6,0-6.9-0.3-9.9-0.7
		c-2-0.4-4.2-0.6-6.7-0.6c-2.1,0-4.3,0.1-6.5,0.3c-2.2,0.2-3.8,0.3-4.8,0.3c-4.7,0.5-8.7,0.7-11.8,0.7
		C875.7,582.5,874.2,581.9,874.2,580.5z M951.4,518.7c5.4-2.3,10.1-6.1,14.1-11.4c4-5.3,6.1-12.2,6.1-20.7c0-6.4-2.2-11.7-6.5-16.2
		c-4.4-4.4-9.8-6.6-16.3-6.6c-2.7,0-4.8,0.9-6.2,2.7c-1.4,1.8-2.9,5.6-4.5,11.3l-9.9,37.2c-0.4,1.1-0.6,2.1-0.6,3
		c0,1.6,0.7,2.7,2.1,3.3c1.4,0.6,3.7,0.8,7.1,0.8C941.2,522.1,946,521,951.4,518.7z"/>
	<path d="M1054.2,580.9c-3.6-1.5-5.7-2.2-6.2-2.2c-0.9,0-2.2,0.4-3.9,1.1c-2,1.2-3.2,1.9-3.7,1.9c-0.6,0-1.4-0.4-2.2-1.2
		c-0.9-0.8-1.3-1.6-1.3-2.3c0-0.4,0.6-2,1.7-4.9c1.6-4.1,3-8,4.2-11.6c1.2-3.6,2.1-7.6,2.7-12c0.2-1.4,0.6-2.3,1-2.9
		c0.4-0.6,1.1-0.8,2-0.8c1,0,1.6,0.5,1.9,1.6c0.2,1.1,0.4,3,0.4,5.7c0,7.6,1.9,13.8,5.6,18.5c3.7,4.7,9.3,7.1,16.6,7.1
		c8.2,0,15.1-2.3,20.5-7s8.1-11.1,8.1-19.2c0-4.9-1.1-9.3-3.3-13.2c-2.2-3.9-6.3-8.7-12.2-14.3c-6.4-5.7-11.2-11.2-14.5-16.3
		c-3.3-5.1-5-10.9-5-17.4c0-6.5,1.7-12.3,5.1-17.5c3.4-5.2,8.1-9.2,14.1-12.2c6-2.9,12.6-4.4,19.8-4.4c2.9,0,7.2,0.7,12.9,2.2l5,1.7
		c2.4,1,4,1.5,5,1.5c1.4,0,2.6-0.3,3.6-0.9c1-0.6,2.1-0.9,3.2-0.9c0.9,0,1.5,0.3,1.8,0.9c0.3,0.6,0.5,1.3,0.5,2.1
		c0,0.1-0.8,1.6-2.3,4.3c-1.6,2.7-3.1,9.5-4.8,20.2c-0.3,1.7-0.7,3.2-1.3,4.3c-0.6,1.1-1.2,1.7-1.7,1.7c-1.5,0-2.2-1.6-2.2-4.9
		c0-8.5-2-15.1-5.9-19.7s-9.3-7-16-7c-4.2,0-8.2,1.2-11.9,3.5c-3.7,2.3-6.6,5.3-8.8,9.1c-2.2,3.7-3.3,7.6-3.3,11.6
		c0,5,1.3,9.7,3.9,14.1c2.6,4.4,7.1,9.6,13.5,15.4c6.7,6.1,11.6,11.5,14.6,16.2c3,4.7,4.5,9.5,4.5,14.5c0,7-1.7,13.3-5,18.9
		c-3.3,5.6-8.2,10.1-14.6,13.4c-6.4,3.3-14.1,5-22.9,5C1066.9,584.4,1060.5,583.2,1054.2,580.9z"/>
	<path d="M1160.5,580.5c0-1.5,2.2-2.6,6.7-3.4c4.9-0.9,8.8-2.4,11.7-4.5c2.9-2.1,5-5.2,6.3-9.4l25.8-84.5c0.7-2.5,1.1-4.5,1.1-6
		c0-2.1-0.7-3.7-2.1-4.9c-1.4-1.1-3.6-2-6.7-2.6c-1.7-0.4-2.9-0.8-3.6-1.4c-0.6-0.6-0.9-1.3-0.9-2.3c0-1.4,1.9-2.1,5.6-2.1
		c3.2,0,6.9,0.1,10.8,0.4l9.3,0.2l8.4-0.2c3.7-0.2,7.3-0.4,10.7-0.4c3,0,4.5,0.7,4.5,2.1c0,1.7-2.3,3-6.9,3.7
		c-4.7,0.9-8.4,2.3-10.8,4.2c-2.5,1.9-4.4,5-5.6,9.3l-25.8,84.5c-0.5,1.6-0.7,3.2-0.7,4.9c0,2.5,0.8,4.4,2.5,5.8
		c1.7,1.4,4.3,2.4,7.8,3.2c1.7,0.4,3,0.8,3.6,1.3c0.7,0.5,1,1.2,1,2.1c0,1.4-1.9,2.1-5.6,2.1c-4.2,0-7.9-0.2-10.8-0.6
		c-3.7-0.3-6.9-0.4-9.4-0.4c-2.9,0-6.4,0.1-10.7,0.4c-3.5,0.4-7.4,0.6-11.8,0.6C1162,582.5,1160.5,581.9,1160.5,580.5z"/>
	<path d="M1258.1,579.7c0-0.7,0.5-1.4,1.4-1.9c0.9-0.5,2.6-1.1,5-1.7c10-2.6,18.1-7.5,24.5-14.8c9.5-10.5,18.3-20.8,26.4-30.9
		c8.1-10.1,17.3-21.9,27.5-35.3c-1,1.2,4.2-5.4,15.5-20l3.6-4.5c1.1-1.5,2.1-2.8,3-3.8c0.9-1.1,1.6-1.6,2.1-1.6c2,0,3.5-0.3,4.4-0.8
		c0.9-0.6,1.8-1.3,2.7-2.2c0.9-0.9,1.5-1.6,1.9-2.1c0.5-0.6,1.2-1.5,2.2-2.5c1-1.1,1.7-1.7,2.2-2.1c0.4-0.3,0.8-0.5,1.2-0.5
		c0.9,0,1.3,0.8,1.3,2.4c0,1.4-0.1,2.6-0.4,3.6l-19.4,97.6c-0.6,2.7-0.9,5.5-0.9,8.2c0,2.9,0.6,5,1.8,6.5c1.2,1.5,3.1,2.6,5.7,3.4
		c2.4,0.6,4,1.2,4.8,1.6c0.8,0.4,1.2,1,1.2,1.8c0,1.5-1.9,2.2-5.8,2.2l-8.8-0.4c-6-0.5-10.6-0.7-13.8-0.7l-18.5,0.2
		c-3,0-4.5-0.9-4.5-2.6c0-0.7,0.5-1.4,1.5-2.1c1-0.6,2.2-1.1,3.7-1.3c4.2-0.7,7.5-1.6,9.7-2.5c2.2-0.9,4-2.3,5.2-4.2
		c1.2-1.9,2.4-4.6,3.4-8.2l5.8-22.3c0.5-1.7,0.2-3-0.8-3.8c-1.1-0.8-2.6-1.2-4.6-1.2l-20.9,0.4c-2,0-3.6,0.3-4.9,0.7
		c-1.2,0.5-2.3,1.4-3.2,2.6l-19.3,25.4c-2.5,3.1-3.7,5.7-3.7,7.9c0,1.2,0.4,2.2,1.3,2.9c0.9,0.7,2.1,1.3,3.7,2
		c3.1,1,4.7,2.4,4.7,4.1c0,1.6-1.7,2.4-5.2,2.4c-2,0-3.6-0.1-4.9-0.2l-9.7-0.2c-2.9,0-5.4,0.1-7.7,0.2s-4.1,0.2-5.6,0.4
		c-3.7,0.4-7.1,0.6-10.1,0.6C1259.6,582.5,1258.1,581.6,1258.1,579.7z M1351.8,527.2c1.4,0,2.4-0.4,3.2-1.2c0.7-0.8,1.4-2.2,1.9-4
		l9-41c0.4-1.4,0.6-2.4,0.6-3c0-0.9-0.4-1.3-1.1-1.3c-1.4,0-2.6,0.7-3.6,2.2l-33.3,44.3c-1,1.5-1.5,2.4-1.5,2.6c0,1,1.6,1.5,4.9,1.5
		L1351.8,527.2z"/>
</g>
</svg>
